<?xml version="1.0" encoding="utf-8"?><svg xmlns="http://www.w3.org/2000/svg" xmlns:xlink="http://www.w3.org/1999/xlink"><symbol viewBox="0 0 25 28" fill="none" id="contacts-address"><circle cx="14.5" cy="17.5" r="9.5" fill="#6FD7E9"/><path fill-rule="evenodd" clip-rule="evenodd" d="M4.633 9.247C2.987 11.033 2 13.37 2 15.921 2 21.424 6.636 26 12.5 26S23 21.424 23 15.921c0-2.571-.847-4.734-2.633-6.674l-.307-.333-.042-.137a21.34 21.34 0 0 0-.997-.999 79.528 79.528 0 0 0-2.922-2.606 70.83 70.83 0 0 0-3.021-2.455 23.13 23.13 0 0 0-.594-.437c-.089.063-.186.133-.29.21a49.117 49.117 0 0 0-2.523 2.044C7.753 6.175 5.7 8.09 4.633 9.247zM20.122 8.9a.465.465 0 0 1-.004-.006l.004.006zM3.162 7.892C5.452 5.408 11.648 0 12.5 0c.852 0 9.095 7.103 9.338 7.892C23.958 10.195 25 12.84 25 15.922 25 22.591 19.404 28 12.5 28S0 22.592 0 15.921c0-3.082 1.195-5.895 3.162-8.029zm.862 8.003c0-4.627 3.856-8.27 8.476-8.27 4.62 0 8.476 3.643 8.476 8.27 0 4.629-3.856 8.271-8.476 8.271-4.62 0-8.476-3.642-8.476-8.27zm2 0c0-3.462 2.9-6.27 6.476-6.27s6.476 2.808 6.476 6.27c0 3.464-2.9 6.271-6.476 6.271-3.577 0-6.476-2.807-6.476-6.27z" fill="#24739F"/></symbol><symbol viewBox="0 0 28 28" fill="none" id="contacts-email"><circle cx="16.5" cy="13.5" r="11.5" fill="#6FD7E9"/><path d="M23.898 4.102A13.901 13.901 0 0 0 14 0a13.901 13.901 0 0 0-9.898 4.102A13.901 13.901 0 0 0 0 14c0 3.741 1.457 7.253 4.102 9.898A13.901 13.901 0 0 0 14 28c2.278 0 4.533-.557 6.535-1.618a1.032 1.032 0 0 0-.964-1.825A11.95 11.95 0 0 1 14 25.934C7.419 25.934 2.066 20.581 2.066 14 2.066 7.419 7.419 2.066 14 2.066c6.581 0 11.934 5.353 11.934 11.934 0 2.215-.62 3.477-1.141 4.143-.557.717-1.303 1.124-2.049 1.124-1.038 0-2.088-.826-2.088-2.674V8.555c0-.568-.465-1.033-1.033-1.033-.568 0-1.033.465-1.033 1.033v.453a7.058 7.058 0 0 0-5.02-2.088C9.662 6.914 6.484 10.093 6.484 14a7.094 7.094 0 0 0 7.086 7.086c.694 0 1.377-.098 2.03-.298.546-.161.856-.74.695-1.285a1.036 1.036 0 0 0-1.285-.695 5.086 5.086 0 0 1-1.44.212A5.026 5.026 0 0 1 8.55 14a5.024 5.024 0 0 1 5.02-5.02A5.022 5.022 0 0 1 18.59 14v2.593c0 3.11 2.089 4.74 4.154 4.74 1.383 0 2.726-.7 3.678-1.922C27.455 18.085 28 16.215 28 14c0-3.741-1.457-7.252-4.102-9.898z" fill="#24739F"/></symbol><symbol viewBox="0 0 27 28" fill="none" id="contacts-tel"><circle cx="18" cy="14" r="9" fill="#6FD7E9"/><path d="M23.361 3.668A12.291 12.291 0 0 0 14.577 0a.988.988 0 0 0-.984.992c0 .548.44.993.984.993 2.792 0 5.418 1.096 7.392 3.086a10.513 10.513 0 0 1 3.062 7.453c0 .548.44.992.985.992a.988.988 0 0 0 .984-.992c0-3.345-1.292-6.49-3.639-8.856z" fill="#24739F"/><path d="M19.312 12.524a.99.99 0 0 0 .985.993.988.988 0 0 0 .984-.993c0-3.726-3.008-6.757-6.704-6.758a.988.988 0 0 0-.984.992c0 .548.44.993.984.993 2.61 0 4.735 2.142 4.735 4.773zm-2.178 5.06c-1.5-.078-2.265 1.047-2.631 1.587a.997.997 0 0 0 .257 1.38.98.98 0 0 0 1.368-.26c.433-.638.63-.739.895-.726.852.101 4.207 2.58 4.544 3.355.084.228.08.452-.01.724-.352 1.054-.935 1.795-1.686 2.142-.714.33-1.59.3-2.53-.086-3.515-1.444-6.585-3.46-9.126-5.99l-.003-.003c-2.505-2.56-4.5-5.65-5.93-9.188-.383-.95-.413-1.832-.086-2.551.345-.758 1.08-1.345 2.124-1.7.27-.092.492-.095.717-.01.771.34 3.23 3.722 3.329 4.571.014.278-.086.476-.719.912a.997.997 0 0 0-.258 1.38.98.98 0 0 0 1.368.259c.537-.37 1.652-1.138 1.575-2.656C10.247 9.14 7.188 4.941 5.726 4.4c-.65-.245-1.334-.249-2.033-.012C2.119 4.92.983 5.873.407 7.14c-.56 1.23-.542 2.656.051 4.127 1.53 3.785 3.672 7.098 6.365 9.845a.834.834 0 0 0 .02.02c2.723 2.71 6.005 4.864 9.755 6.405.751.308 1.49.462 2.198.462a4.48 4.48 0 0 0 1.895-.41c1.257-.58 2.202-1.726 2.732-3.313.234-.704.23-1.393-.01-2.045-.54-1.478-4.704-4.562-6.279-4.648z" fill="#24739F"/></symbol><symbol viewBox="0 0 139.4 44.7" id="dorohovdesign"><path d="M52.2 19.5V8.1H57c3.6 0 6.1 2.1 6.1 5.7 0 3.5-2.6 5.7-6.1 5.7h-4.8zm7.9-5.7c0-1.8-1.1-3.1-3.1-3.1h-1.9v6.2H57c2 0 3.1-1.4 3.1-3.1m4.1 0c0-3.4 2.6-5.9 6.1-5.9 3.5 0 6.1 2.4 6.1 5.9 0 3.5-2.6 5.9-6.1 5.9-3.5 0-6.1-2.4-6.1-5.9m9.2 0c0-1.9-1.2-3.3-3.1-3.3-1.9 0-3.1 1.4-3.1 3.3 0 1.8 1.2 3.3 3.1 3.3 1.9 0 3.1-1.4 3.1-3.3m11 5.7l-1.9-3.8H81v3.8h-2.9V8.1h5.7c2.5 0 3.9 1.7 3.9 3.8 0 2-1.2 3-2.3 3.4l2.3 4.2h-3.3zm.3-7.6c0-.8-.6-1.2-1.4-1.2H81v2.4h2.3c.8 0 1.4-.4 1.4-1.2m4.2 1.9c0-3.4 2.6-5.9 6.1-5.9 3.5 0 6.1 2.4 6.1 5.9 0 3.5-2.6 5.9-6.1 5.9-3.5 0-6.1-2.4-6.1-5.9m9.1 0c0-1.9-1.2-3.3-3.1-3.3-1.9 0-3.1 1.4-3.1 3.3 0 1.8 1.2 3.3 3.1 3.3 1.9 0 3.1-1.4 3.1-3.3m12.4 5.7v-4.6h-4.7v4.6h-3V8.1h3v4.3h4.7V8.1h2.9v11.4zm4.6-5.7c0-3.4 2.6-5.9 6.1-5.9 3.5 0 6.1 2.4 6.1 5.9 0 3.5-2.6 5.9-6.1 5.9-3.5 0-6.1-2.4-6.1-5.9m9.2 0c0-1.9-1.2-3.3-3.1-3.3-1.9 0-3.1 1.4-3.1 3.3 0 1.8 1.2 3.3 3.1 3.3 1.9 0 3.1-1.4 3.1-3.3m7.3 5.7l-4.3-11.4h3.3l2.8 8.2 2.8-8.2h3.3l-4.2 11.4zm-79.3 17V25.1H57c3.6 0 6.1 2.1 6.1 5.7 0 3.5-2.6 5.7-6.1 5.7h-4.8zm7.9-5.7c0-1.8-1.1-3.1-3.1-3.1h-1.9v6.2H57c2 0 3.1-1.4 3.1-3.1m4.7 5.7V25.1h8.3v2.6h-5.3v1.8H73V32h-5.2v1.9h5.3v2.6zm9.6-1.6l1.5-2.2c.8.8 2.1 1.5 3.6 1.5 1 0 1.6-.4 1.6-.9 0-1.5-6.4-.3-6.4-4.7 0-1.9 1.6-3.6 4.5-3.6 1.8 0 3.4.5 4.6 1.6l-1.6 2.1c-1-.8-2.2-1.2-3.3-1.2-.8 0-1.2.3-1.2.8 0 1.4 6.4.4 6.4 4.6 0 2.3-1.7 3.8-4.7 3.8-2.2 0-3.8-.7-5-1.8m11.5-9.8h2.9v11.3h-2.9zm4.7 5.7c0-3.6 2.8-5.9 6.1-5.9 2.5 0 4.1 1.3 4.8 2.8L99.1 29c-.4-.7-1.3-1.4-2.4-1.4-1.9 0-3.2 1.4-3.2 3.3s1.3 3.3 3.2 3.3c.8 0 1.7-.3 2.1-.7v-.9h-2.6V30h5.5v4.5c-1.2 1.3-2.9 2.2-5 2.2-3.4 0-6.1-2.3-6.1-5.9m20.9 5.7l-4.8-6.6v6.6h-2.9V25.1h3l4.6 6.3v-6.3h2.9v11.4zM17.7 0H0v44.7h17.8c15 0 24.6-8.8 24.6-22.4C42.4 8.7 32.7 0 17.7 0m-.4 35.7h-8V9.5h8c9.3 0 15.7 3.7 15.7 12.7.1 7.5-5.8 13.5-15.7 13.5"/><path d="M19.1 17H17v10.6h2c4 0 6.4-2.4 6.4-5.4 0-3.7-2.6-5.2-6.3-5.2"/></symbol><symbol viewBox="0 0 96.124 96.123" id="fb"><path d="M72.089.02L59.624 0C45.62 0 36.57 9.285 36.57 23.656v10.907H24.037a1.96 1.96 0 0 0-1.96 1.961v15.803a1.96 1.96 0 0 0 1.96 1.96H36.57v39.876a1.96 1.96 0 0 0 1.96 1.96h16.352a1.96 1.96 0 0 0 1.96-1.96V54.287h14.654a1.96 1.96 0 0 0 1.96-1.96l.006-15.803a1.963 1.963 0 0 0-1.961-1.961H56.842v-9.246c0-4.444 1.059-6.7 6.848-6.7l8.397-.003a1.96 1.96 0 0 0 1.959-1.96V1.98A1.96 1.96 0 0 0 72.089.02z"/></symbol><symbol viewBox="0 0 46 46" fill="none" id="icon-adv1"><circle cx="19" cy="14" r="13" fill="#6FD7E9"/><path d="M28.39 25.633a.898.898 0 0 0-.898.896.898.898 0 0 0 1.797 0 .898.898 0 0 0-.898-.896zm.145-9.499l-2.02-1.163c.053-.341.08-.669.08-.99 0-.32-.026-.648-.08-.99l2.02-1.162a.895.895 0 0 0 .329-1.224L27.067 7.5a.898.898 0 0 0-1.227-.328l-2.027 1.167a7.094 7.094 0 0 0-1.711-.974V4.75a.897.897 0 0 0-.899-.896H17.61a.897.897 0 0 0-.899.896v2.616a7.24 7.24 0 0 0-1.708.974l-2.03-1.168a.9.9 0 0 0-1.227.328L9.95 10.605a.895.895 0 0 0 .328 1.224l2.02 1.163a6.49 6.49 0 0 0-.079.99c0 .32.026.648.078.99l-2.019 1.162a.895.895 0 0 0-.328 1.225l1.796 3.104a.9.9 0 0 0 1.228.328l2.028-1.168a7.242 7.242 0 0 0 1.71.974v2.347c0 .495.401.896.898.896h3.593a.897.897 0 0 0 .899-.896v-2.346a7.084 7.084 0 0 0 1.71-.974l2.027 1.167a.9.9 0 0 0 1.228-.328l1.797-3.104a.895.895 0 0 0-.33-1.225zm-2.575 2.657l-1.799-1.036a.9.9 0 0 0-1.066.124c-.6.565-1.323.977-2.15 1.226a.896.896 0 0 0-.64.858v2.085h-1.797v-2.085a.897.897 0 0 0-.64-.858 5.336 5.336 0 0 1-2.149-1.226.9.9 0 0 0-1.066-.124l-1.8 1.036-.898-1.553 1.797-1.035a.895.895 0 0 0 .425-.984 5.304 5.304 0 0 1-.161-1.237c0-.381.053-.786.16-1.238a.895.895 0 0 0-.424-.984l-1.797-1.035.899-1.553 1.8 1.037a.9.9 0 0 0 1.065-.125 5.336 5.336 0 0 1 2.15-1.226.896.896 0 0 0 .64-.858V5.646h1.796V8c0 .395.26.744.64.858.827.249 1.55.661 2.15 1.226a.9.9 0 0 0 1.066.125l1.799-1.037.898 1.553-1.797 1.035a.895.895 0 0 0-.424.984 5.3 5.3 0 0 1 .16 1.238c0 .38-.052.786-.16 1.237a.895.895 0 0 0 .424.984l1.797 1.036-.898 1.552z" fill="#24739F"/><path d="M19.406 10.396a3.593 3.593 0 0 0-3.593 3.585 3.593 3.593 0 0 0 3.593 3.586A3.593 3.593 0 0 0 23 13.982a3.594 3.594 0 0 0-3.594-3.585zm0 5.378c-.99 0-1.797-.804-1.797-1.792a1.797 1.797 0 0 1 3.594 0c0 .988-.806 1.792-1.797 1.792zm5.391 9.859H12.219a.897.897 0 1 0 0 1.792h12.578a.897.897 0 1 0 0-1.792z" fill="#24739F"/><path d="M43.305 14.878H40.07V2.688A2.695 2.695 0 0 0 37.375 0H2.695A2.695 2.695 0 0 0 0 2.689v25.633a2.695 2.695 0 0 0 2.695 2.688h5.032v5.786a.896.896 0 0 0 .898.896c.19 0 .379-.06.537-.178l3.955-2.941v3.249a2.695 2.695 0 0 0 2.696 2.688h16.445l6.338 5.282a.9.9 0 0 0 1.474-.688V40.51h3.235A2.695 2.695 0 0 0 46 37.822V17.566a2.695 2.695 0 0 0-2.695-2.688zM9.523 35.01v-4.896a.897.897 0 0 0-.898-.896h-5.93a.898.898 0 0 1-.898-.896V2.689c0-.494.403-.897.898-.897h34.68c.495 0 .898.403.898.897v25.633a.898.898 0 0 1-.898.896H17.609a.899.899 0 0 0-.537.177L9.524 35.01zm34.68 2.812a.898.898 0 0 1-.898.896h-4.133a.897.897 0 0 0-.899.896v3.574l-5.113-4.261a.9.9 0 0 0-.576-.209H15.813a.898.898 0 0 1-.899-.896v-4.585l2.993-2.227h19.468a2.695 2.695 0 0 0 2.695-2.688V16.67h3.235c.495 0 .898.402.898.897v20.255z" fill="#24739F"/></symbol><symbol viewBox="0 0 46 46" fill="none" id="icon-adv2"><circle cx="34" cy="33" r="8" fill="#6FD7E9"/><path d="M30.667 25.3a4.605 4.605 0 0 0-4.6 4.6c0 2.537 2.063 4.6 4.6 4.6 2.537 0 4.6-2.063 4.6-4.6 0-2.537-2.063-4.6-4.6-4.6zm0 7.667A3.07 3.07 0 0 1 27.6 29.9a3.07 3.07 0 0 1 3.067-3.067 3.07 3.07 0 0 1 3.066 3.067 3.07 3.07 0 0 1-3.066 3.067z" fill="#24739F"/><path d="M32.2 32.967v3.168l-1.109-.74a.763.763 0 0 0-.85 0l-1.108.74v-3.168H27.6v4.6a.766.766 0 0 0 1.192.638l1.875-1.25 1.874 1.25a.77.77 0 0 0 .788.038.767.767 0 0 0 .404-.676v-4.6H32.2zm-4.6-25.3h-9.967V9.2H27.6V7.667zm7.667 4.6H10.733V13.8h24.534v-1.533zm-7.667 4.6H10.733V18.4H27.6v-1.533zm7.667 0h-4.6V18.4h4.6v-1.533zm0 4.6H10.733V23h24.534v-1.533zm-15.334 4.6h-9.2V27.6h9.2v-1.533zM14.567 29.9h-3.834v1.533h3.834V29.9zm5.366 0h-2.3v1.533h2.3V29.9zM42.167 0a3.838 3.838 0 0 0-3.834 3.833v1.534c0 .423.343.766.767.766h6.133A.766.766 0 0 0 46 5.367V3.833A3.837 3.837 0 0 0 42.167 0zm2.3 4.6h-4.6v-.767c0-1.268 1.032-2.3 2.3-2.3 1.268 0 2.3 1.032 2.3 2.3V4.6z" fill="#24739F"/><path d="M42.167 0h-32.2a3.838 3.838 0 0 0-3.834 3.833v36.8h1.534v-36.8c0-1.268 1.032-2.3 2.3-2.3h29.135a3.813 3.813 0 0 0-.768 2.3v38.334c0 1.268-1.033 2.3-2.3 2.3H6.9V46h29.133a3.838 3.838 0 0 0 3.834-3.833V3.833c0-1.268 1.032-2.3 2.3-2.3a.766.766 0 1 0 0-1.533z" fill="#24739F"/><path d="M36.033 44.467a2.303 2.303 0 0 1-2.3-2.3v-1.534a.766.766 0 0 0-.766-.766H.767a.766.766 0 0 0-.767.766v1.534A3.838 3.838 0 0 0 3.833 46h32.2a.766.766 0 1 0 0-1.533zm-32.2 0a2.303 2.303 0 0 1-2.3-2.3V41.4H32.2v.767c0 .862.286 1.659.768 2.3H3.833z" fill="#24739F"/></symbol><symbol viewBox="0 0 38 46" fill="none" id="icon-adv3"><circle cx="18.5" cy="22.5" r="13.5" fill="#6FD7E9"/><path d="M36.29 19.947l-2.678-.663-1.4-3.357 1.42-2.349a.894.894 0 0 0-.135-1.098l-3.748-3.723a.91.91 0 0 0-1.105-.135l-2.365 1.412-3.379-1.39-.667-2.662a.903.903 0 0 0-.878-.68h-5.298a.903.903 0 0 0-.878.68l-.667 2.661-3.379 1.391L8.77 8.622a.909.909 0 0 0-1.106.135L3.916 12.48a.894.894 0 0 0-.136 1.098l1.421 2.35-1.4 3.356-2.678.663a.9.9 0 0 0-.686.872v5.264a.9.9 0 0 0 .686.872l2.678.663 1.4 3.356-1.42 2.35a.894.894 0 0 0 .135 1.098l3.747 3.723a.909.909 0 0 0 1.106.134l2.364-1.412 1.622.668c.01.184.017.369.017.555v4.932c0 1.642 1.344 2.978 2.997 2.978h5.895c1.653 0 2.997-1.336 2.997-2.978V38.09c0-.188.007-.377.018-.564l1.6-.659 2.365 1.412a.906.906 0 0 0 1.105-.134l3.748-3.723a.894.894 0 0 0 .135-1.099l-1.421-2.349 1.4-3.356 2.679-.663a.9.9 0 0 0 .685-.872v-5.264a.9.9 0 0 0-.685-.872zM21.664 44.203h-5.895c-.655 0-1.189-.53-1.189-1.18v-.617h2.996a.901.901 0 0 0 .904-.898.902.902 0 0 0-.904-.899H14.58v-1.493h8.272v3.906c0 .651-.533 1.181-1.188 1.181zm1.215-6.884h-8.324a11.073 11.073 0 0 0-3.094-6.999 9.897 9.897 0 0 1-2.807-7.21c.146-5.322 4.627-9.683 9.99-9.72h.073a10.03 10.03 0 0 1 7.092 2.903 9.898 9.898 0 0 1 2.973 7.097 9.923 9.923 0 0 1-2.746 6.864c-1.87 1.966-2.975 4.45-3.157 7.065zM35.167 25.38l-2.435.602a.903.903 0 0 0-.617.528l-1.75 4.194a.893.893 0 0 0 .061.807l1.292 2.135-2.748 2.73-2.15-1.283a.91.91 0 0 0-.812-.06l-.958.394a9.772 9.772 0 0 1 2.3-3.94 11.708 11.708 0 0 0 3.241-8.098 11.68 11.68 0 0 0-3.508-8.372 11.82 11.82 0 0 0-8.452-3.425c-3.082.021-6 1.221-8.217 3.377C8.197 17.128 6.93 20 6.846 23.061a11.675 11.675 0 0 0 3.311 8.505 9.234 9.234 0 0 1 2.244 3.878l-.997-.41a.91.91 0 0 0-.812.06l-2.15 1.283-2.748-2.73 1.293-2.135a.893.893 0 0 0 .06-.807l-1.75-4.194a.903.903 0 0 0-.616-.528l-2.435-.602v-3.86l2.435-.603a.902.902 0 0 0 .616-.528l1.75-4.194a.893.893 0 0 0-.06-.806l-1.293-2.136 2.749-2.73 2.15 1.284a.91.91 0 0 0 .811.06l4.222-1.738a.9.9 0 0 0 .531-.613l.607-2.419h3.885l.607 2.419a.9.9 0 0 0 .53.613l4.222 1.738a.91.91 0 0 0 .813-.06l2.15-1.284 2.747 2.73-1.292 2.136a.893.893 0 0 0-.06.806l1.75 4.194c.109.264.338.46.616.528l2.435.603v3.86zM18.707 0c-.5 0-.905.402-.905.898v2.2c0 .497.405.899.905.899a.901.901 0 0 0 .904-.899v-2.2A.901.901 0 0 0 18.707 0zM4.438 7.554L1.544 4.679a.909.909 0 0 0-1.28 0 .894.894 0 0 0 0 1.27L3.16 8.826a.905.905 0 0 0 1.279 0 .894.894 0 0 0 0-1.271zm32.721-2.886a.909.909 0 0 0-1.279 0l-2.894 2.875a.894.894 0 0 0 0 1.271.905.905 0 0 0 1.279 0l2.894-2.875a.894.894 0 0 0 0-1.27z" fill="#24739F"/><path d="M21.29 40.873a.914.914 0 0 0-.64-.264.902.902 0 0 0-.904.898.901.901 0 0 0 .905.9.902.902 0 0 0 .904-.898.902.902 0 0 0-.265-.636z" fill="#24739F"/><path fill-rule="evenodd" clip-rule="evenodd" d="M22.326 19.514a4.25 4.25 0 0 1 .794.907c.132.203.019.466-.214.537l-1.741.524a.437.437 0 0 1-.463-.164 2.1 2.1 0 0 0-.68-.57 2.348 2.348 0 0 0-1.174-.298c-.365 0-.706.075-1.022.224a2.437 2.437 0 0 0-.832.597c-.227.25-.41.554-.549.915a3.6 3.6 0 0 0-.19 1.195c0 .435.07.833.209 1.194.139.361.322.672.549.933.24.262.517.467.832.616.316.137.65.206 1.003.206.454 0 .87-.112 1.25-.336.269-.155.482-.333.637-.535.119-.153.313-.245.499-.19l1.728.521c.227.068.342.322.22.524a3.914 3.914 0 0 1-.782.928l-.006.006a4.815 4.815 0 0 1-.688.5c-.782.473-1.722.71-2.82.71-.807 0-1.533-.137-2.176-.411a5.07 5.07 0 0 1-1.646-1.101 5.187 5.187 0 0 1-1.06-1.624 5.354 5.354 0 0 1-.36-1.941c0-.685.12-1.332.36-1.942.24-.61.587-1.145 1.04-1.605a5.068 5.068 0 0 1 1.647-1.101c.643-.274 1.369-.411 2.176-.411 1.085 0 2.006.23 2.763.69.25.15.48.315.688.494l.008.008zm.11-1.836c-1.05-.637-2.264-.915-3.569-.915-.985 0-1.922.167-2.787.535a6.628 6.628 0 0 0-2.145 1.44 6.28 6.28 0 0 0-1.382 2.13 6.817 6.817 0 0 0-.468 2.513c0 .862.155 1.699.464 2.501l.007.018.007.018a6.743 6.743 0 0 0 1.376 2.108l.007.007.007.008a6.628 6.628 0 0 0 2.146 1.44c.864.368 1.802.536 2.787.536 1.325 0 2.556-.287 3.627-.934.828-.501 1.513-1.151 2.003-1.963.717-1.186-.032-2.5-1.104-2.823l-1.729-.52c-.977-.295-1.792.224-2.182.73a.628.628 0 0 1-.179.134l-.01.005-.009.006a.85.85 0 0 1-.455.118.938.938 0 0 1-.359-.067 1.11 1.11 0 0 1-.313-.233 1.579 1.579 0 0 1-.257-.455 1.753 1.753 0 0 1-.104-.634c0-.273.038-.488.095-.659.076-.191.16-.316.234-.398a.878.878 0 0 1 .303-.22l.024-.01.023-.01a.8.8 0 0 1 .354-.075.79.79 0 0 1 .408.098l.018.01.02.01a.56.56 0 0 1 .18.152c.432.553 1.246.965 2.14.696l1.742-.524c1.105-.333 1.84-1.702 1.07-2.882a6.053 6.053 0 0 0-1.99-1.891z" fill="#24739F"/></symbol><symbol viewBox="0 0 34 46" fill="none" id="icon-adv4"><circle cx="15" cy="31" r="15" fill="#6FD7E9"/><path fill-rule="evenodd" clip-rule="evenodd" d="M7.992 8.576a8.576 8.576 0 0 1 17.152 0v5.848a8.559 8.559 0 0 1-3.119 6.616v3.61c0 .192.155.403.421.45 3.493.606 9.413 2.973 10.836 9.098.033.143.049.285.049.427v9.427A1.948 1.948 0 0 1 31.38 46H1.95C.874 46 0 45.13 0 44.052v-9.427c0-.142.015-.284.048-.427 1.424-6.125 7.343-8.492 10.836-9.099.266-.046.421-.257.421-.448v-3.455a8.562 8.562 0 0 1-3.313-6.772V8.576zm6.949 5.329c2.049.434 4.627-.009 7.538-2.609-5.028.758-9.233.496-11.863.054 1.065 1.13 2.556 2.18 4.325 2.555zm-.323 1.525c2.65.561 5.733-.117 8.967-3.032v2.026a7.017 7.017 0 1 1-14.034 0v-1.932c1.233 1.286 2.962 2.492 5.067 2.938zm8.967-5.9v-.954a7.017 7.017 0 1 0-14.034 0v.967c2.27.563 7.5 1.188 14.034-.013zm-10.72 12.631v2.49c0 1.026-.78 1.823-1.714 1.985a13.95 13.95 0 0 0-.147.026l5.58 7.175 5.878-7.15a14.03 14.03 0 0 0-.282-.051c-.935-.162-1.714-.959-1.714-1.985v-2.586a8.54 8.54 0 0 1-3.898.935 8.542 8.542 0 0 1-3.704-.839zm4.615 13.042l6.649-8.087c3.076.981 6.65 3.198 7.634 7.435a.316.316 0 0 1 .008.074v9.427a.389.389 0 0 1-.39.389H1.95a.389.389 0 0 1-.39-.389v-9.427a.32.32 0 0 1 .008-.074c1-4.304 4.672-6.523 7.78-7.48l6.306 8.108a1.17 1.17 0 0 0 1.827.024z" fill="#24739F"/></symbol><symbol viewBox="0 0 46 46" fill="none" id="icon-adv5"><circle cx="15" cy="27" r="13" fill="#6FD7E9"/><path d="M41.42 27.642a.906.906 0 0 0-.635-.263.906.906 0 0 0-.636.263.906.906 0 0 0-.263.636.903.903 0 0 0 .899.899.903.903 0 0 0 .899-.9.905.905 0 0 0-.263-.635z" fill="#24739F"/><path d="M43.302 3.953h-5.798a2.516 2.516 0 0 0-2.239-1.371h-4.063A3.488 3.488 0 0 0 27.837 0a3.489 3.489 0 0 0-3.365 2.582H20.41c-.975 0-1.822.558-2.238 1.371h-5.799a2.7 2.7 0 0 0-2.697 2.695v1.618a.899.899 0 0 0 1.798 0V6.648a.9.9 0 0 1 .9-.898h5.522v2.156h-3.007a.899.899 0 0 0-.899.899v2.575h-3.197a.899.899 0 0 0-.899.899v.42c0 .694-.423 1.316-1.078 1.586l-.036.015a1.727 1.727 0 0 1-1.894-.356l-.298-.297a.9.9 0 0 0-1.271 0l-3.048 3.045a.898.898 0 0 0 0 1.27l.304.305c.49.489.63 1.23.357 1.886l-.015.035a1.716 1.716 0 0 1-1.585 1.078H.9a.899.899 0 0 0-.899.898v4.307c0 .496.403.898.9.898h.437c.691 0 1.312.422 1.582 1.076l.014.034a1.718 1.718 0 0 1-.355 1.885l-.31.309a.898.898 0 0 0 0 1.27l3.048 3.046a.9.9 0 0 0 1.272 0l.309-.31c.489-.488 1.23-.627 1.894-.35l.028.01c.38.157.681.434.867.774a.892.892 0 0 0-.011.136v8.056A2.7 2.7 0 0 0 12.372 46h30.93A2.7 2.7 0 0 0 46 43.305V6.648a2.7 2.7 0 0 0-2.698-2.695zm-23.608 1.14c0-.394.32-.714.715-.714h4.845a.9.9 0 0 0 .899-.899 1.686 1.686 0 0 1 3.369 0c0 .496.402.899.899.899h4.844c.395 0 .716.32.716.715v2.812H19.694V5.094zM9.504 32.679l-.03-.012a3.522 3.522 0 0 0-3.5.438l-1.82-1.818a3.515 3.515 0 0 0 .439-3.498l-.013-.03a3.51 3.51 0 0 0-2.782-2.155v-2.572a3.514 3.514 0 0 0 2.78-2.16l.012-.028a3.519 3.519 0 0 0-.436-3.493l1.821-1.82a3.527 3.527 0 0 0 3.495.429l.032-.013a3.514 3.514 0 0 0 2.157-2.769h2.578a3.518 3.518 0 0 0 2.16 2.765l.032.013a3.534 3.534 0 0 0 3.49-.426l1.825 1.822a3.525 3.525 0 0 0-.427 3.487l.012.03a3.52 3.52 0 0 0 2.768 2.161v2.576a3.515 3.515 0 0 0-2.77 2.155l-.013.032a3.52 3.52 0 0 0 .429 3.493l-1.822 1.82a3.526 3.526 0 0 0-3.495-.436l-.03.012a3.512 3.512 0 0 0-2.16 2.778h-2.574a3.509 3.509 0 0 0-2.158-2.78zm34.698 10.627a.9.9 0 0 1-.9.898h-30.93a.9.9 0 0 1-.9-.898v-6.05h3.63c.497 0 .9-.402.9-.898v-.43c0-.693.423-1.315 1.081-1.585l.032-.013a1.724 1.724 0 0 1 1.888.356l.304.304a.9.9 0 0 0 1.272 0l3.047-3.046a.898.898 0 0 0 0-1.27l-.297-.298a1.723 1.723 0 0 1-.356-1.893l.015-.036a1.718 1.718 0 0 1 1.586-1.076h.422a.9.9 0 0 0 .899-.899v-4.306a.899.899 0 0 0-.9-.899h-.413c-.695 0-1.32-.424-1.59-1.08l-.015-.036a1.728 1.728 0 0 1 .357-1.895l.293-.292a.898.898 0 0 0 0-1.27l-3.048-3.046a.9.9 0 0 0-1.272 0l-.292.292a1.73 1.73 0 0 1-1.894.358l-.037-.016A1.722 1.722 0 0 1 16 12.691v-.412a.894.894 0 0 0-.214-.581V9.703h24.098V24.28a.899.899 0 0 0 1.799 0V8.805a.899.899 0 0 0-.9-.899H37.78V5.75h5.523a.9.9 0 0 1 .9.898v36.657z" fill="#24739F"/><path d="M27.796 4.852h-.012a.899.899 0 1 0 0 1.796h.012a.899.899 0 1 0 0-1.796zM16.371 21.948a.9.9 0 0 0-1.271 0l-2.836 2.834-1.468-1.467a.9.9 0 0 0-1.272 1.27l2.104 2.103a.897.897 0 0 0 1.271 0l3.472-3.47a.898.898 0 0 0 0-1.27zm24.414 9.272a.9.9 0 0 0-.9.899v2.834h-3.931a.9.9 0 0 0-.9.899v3.928H14.889a.899.899 0 1 0 0 1.797h21.066a.9.9 0 0 0 .636-.263l4.83-4.827a.898.898 0 0 0 .264-.635v-3.733a.899.899 0 0 0-.9-.899zm-3.932 7.29v-1.76h1.761l-1.76 1.76z" fill="#24739F"/><path d="M12.947 17.023c-4.025 0-7.3 3.273-7.3 7.295s3.275 7.294 7.3 7.294c4.026 0 7.3-3.272 7.3-7.294s-3.274-7.295-7.3-7.295zm0 12.792a5.506 5.506 0 0 1-5.501-5.497 5.506 5.506 0 0 1 5.502-5.498 5.506 5.506 0 0 1 5.501 5.498 5.506 5.506 0 0 1-5.501 5.497zM36.88 13.926h-4.457a.899.899 0 1 0 0 1.797h4.457a.899.899 0 1 0 0-1.797zm-7.508.263a.906.906 0 0 0-.636-.263.906.906 0 0 0-.635.263.905.905 0 0 0-.264.635.904.904 0 0 0 .9.899.906.906 0 0 0 .635-.264.905.905 0 0 0 .264-.635.905.905 0 0 0-.264-.635zm7.508 5.127h-8.144a.899.899 0 1 0 0 1.797h8.144a.899.899 0 1 0 0-1.797zm0 5.391h-8.144a.899.899 0 1 0 0 1.797h8.144a.899.899 0 1 0 0-1.797zm0 5.391h-8.144a.899.899 0 1 0 0 1.797h8.144a.899.899 0 1 0 0-1.797z" fill="#24739F"/></symbol><symbol viewBox="0 0 48 46" fill="none" id="icon-adv6"><circle cx="24" cy="24" r="16" fill="#6FD7E9"/><path fill-rule="evenodd" clip-rule="evenodd" d="M22.571 11a.98.98 0 0 1 .98-.981c.834 0 1.651.073 2.446.214a.98.98 0 0 1-.34 1.93 12.087 12.087 0 0 0-2.106-.183.98.98 0 0 1-.98-.98zm-1.434.186a.98.98 0 0 1-.694 1.2 12.057 12.057 0 0 0-5.851 3.598.98.98 0 1 1-1.459-1.31 14.016 14.016 0 0 1 6.804-4.182.98.98 0 0 1 1.2.694zm7.269.711a.98.98 0 0 1 1.312-.446c.749.368 1.46.802 2.126 1.293a.98.98 0 0 1-1.163 1.579 12.054 12.054 0 0 0-1.829-1.113.98.98 0 0 1-.446-1.313zm4.934 3.489a.98.98 0 0 1 1.373.188 14.082 14.082 0 0 1 2.868 8.542 14.1 14.1 0 0 1-5.95 11.526.98.98 0 1 1-1.133-1.6 12.14 12.14 0 0 0 5.123-9.926c0-2.767-.92-5.316-2.47-7.356a.98.98 0 0 1 .188-1.374z" fill="#24739F"/><path fill-rule="evenodd" clip-rule="evenodd" d="M23.335.413a2.156 2.156 0 0 1 2.54 0l3.934 2.867a.2.2 0 0 0 .136.036l4.835-.507a2.156 2.156 0 0 1 2.197 1.272l1.977 4.467c.02.045.055.08.1.1l4.444 1.989c.85.38 1.36 1.265 1.264 2.192l-.506 4.873a.196.196 0 0 0 .036.135l2.86 3.967c.543.753.543 1.77 0 2.523l-2.86 3.967a.195.195 0 0 0-.036.135l.505 4.873a2.157 2.157 0 0 1-1.264 2.192l-4.445 1.989a.196.196 0 0 0-.1.1l-1.977 4.467a2.156 2.156 0 0 1-2.197 1.272l-5.822-.612a.98.98 0 0 1 .205-1.95l5.822.611a.196.196 0 0 0 .2-.115l1.977-4.468a2.157 2.157 0 0 1 1.091-1.095l4.445-1.99a.196.196 0 0 0 .115-.199l-.505-4.873a2.157 2.157 0 0 1 .396-1.484l2.86-3.967a.196.196 0 0 0 0-.23l-2.86-3.966a2.16 2.16 0 0 1-.396-1.485l.506-4.873a.196.196 0 0 0-.115-.2l-4.444-1.988a2.157 2.157 0 0 1-1.092-1.096l-1.977-4.467a.196.196 0 0 0-.2-.116l-4.835.508a2.156 2.156 0 0 1-1.494-.402L24.72 1.999a.196.196 0 0 0-.23 0l-3.935 2.866a2.156 2.156 0 0 1-1.495.402l-4.834-.508a.196.196 0 0 0-.2.116L12.05 9.342a2.157 2.157 0 0 1-1.091 1.096l-4.445 1.989a.196.196 0 0 0-.115.2l.505 4.873a2.158 2.158 0 0 1-.396 1.484l-2.755 3.82a.98.98 0 1 1-1.59-1.147l2.755-3.82a.196.196 0 0 0 .036-.135l-.505-4.874a2.157 2.157 0 0 1 1.265-2.191l4.445-1.989a.196.196 0 0 0 .099-.1l1.977-4.467a2.156 2.156 0 0 1 2.197-1.272l4.834.507a.196.196 0 0 0 .136-.036L23.335.413z" fill="#24739F"/><path fill-rule="evenodd" clip-rule="evenodd" d="M13.626 19.527v6.005c0 .577-.281 1.117-.753 1.447l-4.01 2.804c-.297.207-.65.318-1.011.318H.98a.98.98 0 0 1 0-1.96h6.81l3.876-2.71v-6.258c0-1.094 1.056-2.051 2.246-1.633 1.164.41 2.598 1.137 3.757 2.261 1.174 1.139 2.087 2.712 2.087 4.749 0 1.812.066 2.91.141 3.54l.007.05h3.617c.51 0 1.29.08 2.036.329.71.237 1.625.71 2.03 1.658.314.737.366 1.536.33 2.19a6.86 6.86 0 0 1-.288 1.64c-.019.06-.04.113-.06.16L22.845 44.94A1.764 1.764 0 0 1 21.228 46h-7.42a1.76 1.76 0 0 1-.745-.166L7.88 43.416H.98a.98.98 0 0 1 0-1.96h6.943c.258 0 .513.056.746.165l5.182 2.418H21.1l4.667-10.695c.074-.236.167-.659.193-1.133.027-.493-.025-.958-.177-1.314-.07-.164-.308-.388-.847-.568a4.826 4.826 0 0 0-1.415-.228h-4.35a1.02 1.02 0 0 1-.65-.236 1.12 1.12 0 0 1-.239-.276 1.634 1.634 0 0 1-.166-.384 5.365 5.365 0 0 1-.165-.881c-.09-.742-.155-1.93-.155-3.774 0-1.392-.608-2.484-1.492-3.341-.79-.767-1.782-1.324-2.678-1.682z" fill="#24739F"/></symbol><symbol viewBox="0 0 33 38" fill="none" id="icon-download"><path d="M0 0h33v38H0z"/><circle cx="21.5" cy="26.5" r="9.5" fill="#6FD7E9"/><path d="M26.34 29.952a.656.656 0 0 0-.915 0l-1.484 1.452v-7.337a.64.64 0 0 0-.647-.634.64.64 0 0 0-.647.634v7.337l-1.484-1.452a.656.656 0 0 0-.915 0 .623.623 0 0 0 0 .896l2.588 2.533a.653.653 0 0 0 .916 0l2.588-2.533a.623.623 0 0 0 0-.896z" fill="#24739F"/><path d="M23.294 19c-5.352 0-9.706 4.262-9.706 9.5s4.354 9.5 9.706 9.5C28.646 38 33 33.738 33 28.5S28.646 19 23.294 19zm0 17.733c-4.638 0-8.412-3.693-8.412-8.233 0-4.54 3.774-8.233 8.412-8.233 4.638 0 8.412 3.693 8.412 8.233 0 4.54-3.774 8.233-8.412 8.233zm-9.059-1.9H1.295V30.4a.64.64 0 0 0-.648-.633A.64.64 0 0 0 0 30.4v5.067c0 .35.29.633.647.633h13.588a.64.64 0 0 0 .647-.633.64.64 0 0 0-.647-.634zm-13.588-7.6a.64.64 0 0 0-.647.634c0 .35.29.633.647.633h.006a.638.638 0 0 0 .644-.633.643.643 0 0 0-.65-.634z" fill="#24739F"/><path d="M26.987 10.319L16.634.186A.653.653 0 0 0 16.176 0H.647A.64.64 0 0 0 0 .633v24.7c0 .35.29.634.647.634a.64.64 0 0 0 .647-.634V1.267H15.53v9.5c0 .35.29.633.647.633h9.706v5.7c0 .35.29.633.647.633a.64.64 0 0 0 .647-.633v-6.333a.625.625 0 0 0-.19-.448zm-10.163-.186v-7.97l8.143 7.97h-8.143z" fill="#24739F"/></symbol><symbol viewBox="0 0 26 16" id="icon-next"><path fill-rule="evenodd" clip-rule="evenodd" d="M19.249 1.126l6.225 6.226a.978.978 0 0 1 0 1.383l-6.225 6.226a.978.978 0 1 1-1.384-1.383l4.556-4.556H.978a.978.978 0 1 1 0-1.957h21.443L17.865 2.51a.978.978 0 1 1 1.384-1.384z"/></symbol><symbol viewBox="0 0 27 16" id="icon-prev"><path fill-rule="evenodd" clip-rule="evenodd" d="M6.925 14.96L.7 8.736a.978.978 0 0 1 0-1.384l6.226-6.225A.978.978 0 1 1 8.31 2.509L3.753 7.065h21.443a.978.978 0 0 1 0 1.956H3.753l4.556 4.556a.978.978 0 1 1-1.384 1.383z"/></symbol><symbol viewBox="0 0 16 17" id="icon-search"><path d="M15.757 15.484l-3.944-4.208a6.949 6.949 0 0 0 1.57-4.412C13.382 3.079 10.38 0 6.69 0 3.001 0 0 3.08 0 6.864s3.002 6.863 6.691 6.863a6.505 6.505 0 0 0 3.834-1.242l3.974 4.24a.856.856 0 0 0 1.234.025.913.913 0 0 0 .024-1.266zM6.69 1.791c2.727 0 4.946 2.275 4.946 5.073 0 2.797-2.219 5.073-4.946 5.073S1.746 9.66 1.746 6.864c0-2.798 2.218-5.073 4.945-5.073z"/></symbol><symbol viewBox="0 0 49 48" id="inst"><circle cx="24.875" cy="24" r="12" fill="#6FD7E9"/><path d="M34.556 0H14.32C6.423 0 0 6.308 0 14.063v19.874C0 41.693 6.423 48 14.319 48h20.237c7.896 0 14.319-6.308 14.319-14.063V14.064C48.875 6.308 42.452 0 34.556 0zm12.41 33.938c0 6.72-5.567 12.187-12.41 12.187H14.32c-6.843 0-12.41-5.467-12.41-12.188V14.064c0-6.72 5.567-12.188 12.41-12.188h20.237c6.843 0 12.41 5.467 12.41 12.188v19.874z"/><path d="M23.817 41.625h-7.78a.946.946 0 0 0-.954.938c0 .517.427.937.954.937h7.78c.527 0 .955-.42.955-.938a.946.946 0 0 0-.955-.937zm4.343 0h-.011a.946.946 0 0 0-.955.938c0 .517.428.937.955.937h.011c.527 0 .955-.42.955-.938a.946.946 0 0 0-.955-.937zM16.785 14.598a.967.967 0 0 0-1.35-.043l-.042.039a.926.926 0 0 0-.04 1.325.96.96 0 0 0 .695.294.96.96 0 0 0 .655-.256l.038-.034a.926.926 0 0 0 .044-1.325z"/><path d="M24.438 11.063c-2.097 0-4.184.495-6.035 1.434a.93.93 0 0 0-.41 1.263c.241.46.817.64 1.286.403a11.303 11.303 0 0 1 5.159-1.226c6.21 0 11.264 4.963 11.264 11.063 0 6.1-5.053 11.063-11.264 11.063-6.212 0-11.265-4.963-11.265-11.063 0-1.914.506-3.8 1.462-5.454a.929.929 0 0 0-.359-1.278.964.964 0 0 0-1.301.352 12.762 12.762 0 0 0-1.71 6.38c0 7.134 5.909 12.938 13.172 12.938 7.264 0 13.174-5.804 13.174-12.938S31.7 11.062 24.438 11.062z"/><path d="M24.438 15.563c-4.738 0-8.592 3.785-8.592 8.437 0 4.652 3.854 8.438 8.591 8.438 4.738 0 8.592-3.786 8.592-8.438 0-4.652-3.854-8.438-8.592-8.438zm0 15c-3.685 0-6.683-2.944-6.683-6.563 0-3.619 2.998-6.563 6.683-6.563 3.684 0 6.682 2.944 6.682 6.563 0 3.619-2.998 6.563-6.683 6.563zm12.528-22.43c-2 0-3.627 1.598-3.627 3.562 0 1.965 1.627 3.563 3.627 3.563 2 0 3.628-1.598 3.628-3.563 0-1.964-1.628-3.562-3.628-3.562zm0 5.25c-.947 0-1.718-.757-1.718-1.688 0-.93.77-1.687 1.718-1.687s1.719.757 1.719 1.687-.771 1.688-1.719 1.688z"/></symbol><symbol viewBox="0 0 169 46" id="logotip"><path d="M.512 4.742c-.108 0-.162.054-.162.18v11.916c0 .108.054.162.162.162h4.77c.99 0 1.836-.18 2.538-.54 1.134-.594 1.692-1.566 1.692-2.916 0-1.386-.576-2.34-1.71-2.862-.684-.324-1.566-.486-2.628-.486H1.79V6.02h6.786c.126 0 .18-.054.18-.18v-.918c0-.126-.054-.18-.18-.18H.512zm7.542 8.82c0 .864-.36 1.494-1.098 1.89-.486.252-1.08.378-1.782.378H1.79v-4.482h3.294c.72 0 1.332.126 1.836.36.756.378 1.134.99 1.134 1.854zm20.804-2.664c0-1.764-.63-3.258-1.872-4.482-1.242-1.224-2.753-1.836-4.518-1.836-1.637 0-3.06.54-4.265 1.62-1.206 1.08-1.89 2.412-2.052 4.014h-2.934V4.922c0-.126-.055-.18-.18-.18h-1.099c-.107 0-.162.054-.162.18v11.916c0 .108.055.162.162.162h1.098c.127 0 .18-.054.18-.162v-5.346h2.917c.143 1.602.828 2.952 2.052 4.05 1.224 1.098 2.664 1.638 4.338 1.638 1.764 0 3.276-.612 4.518-1.818 1.241-1.206 1.872-2.7 1.872-4.464h-.055zm-1.457 0c0 1.368-.468 2.538-1.404 3.51-.936.972-2.107 1.458-3.492 1.458-1.368 0-2.52-.486-3.456-1.458-.936-.972-1.404-2.142-1.404-3.51 0-1.368.468-2.538 1.422-3.51.953-.972 2.105-1.458 3.456-1.458 1.386 0 2.538.486 3.474 1.458.936.972 1.404 2.142 1.404 3.51zM38.87 8.774c0 1.026-.377 1.782-1.115 2.286-.486.324-1.189.486-2.107.486h-3.132V6.002h3.33c.81 0 1.477.18 1.98.558.703.486 1.044 1.224 1.044 2.214zm-7.63-4.032c-.108 0-.163.054-.163.18v11.916c0 .108.055.162.162.162h1.099c.125 0 .18-.054.18-.162v-4.032h3.365c1.224 0 2.178-.252 2.88-.774 1.044-.756 1.566-1.836 1.566-3.258 0-1.368-.486-2.43-1.44-3.168-.737-.576-1.673-.864-2.825-.864h-4.825zm23.416 6.156c0-1.764-.63-3.258-1.89-4.482-1.26-1.224-2.772-1.836-4.536-1.836-1.764 0-3.276.612-4.536 1.836-1.26 1.224-1.89 2.718-1.89 4.5 0 1.764.63 3.258 1.89 4.464 1.26 1.206 2.772 1.818 4.536 1.818 1.764 0 3.276-.612 4.536-1.818 1.26-1.206 1.89-2.7 1.89-4.464v-.018zm-1.53.018c0 1.368-.468 2.538-1.404 3.51-.936.972-2.088 1.458-3.456 1.458-1.368 0-2.52-.486-3.474-1.458-.954-.972-1.422-2.142-1.422-3.51 0-1.368.468-2.538 1.422-3.51s2.106-1.458 3.474-1.458c1.368 0 2.52.486 3.456 1.458.936.972 1.404 2.142 1.404 3.51zm8.452-6.174c-.108 0-.162.054-.162.18v11.916c0 .108.054.162.162.162h4.77c.99 0 1.836-.18 2.538-.54 1.134-.594 1.692-1.566 1.692-2.916 0-1.386-.576-2.34-1.71-2.862-.684-.324-1.566-.486-2.628-.486h-3.384V6.02h6.786c.126 0 .18-.054.18-.18v-.918c0-.126-.054-.18-.18-.18h-8.064zm7.542 8.82c0 .864-.36 1.494-1.098 1.89-.486.252-1.08.378-1.782.378h-3.384v-4.482h3.294c.72 0 1.332.126 1.836.36.756.378 1.134.99 1.134 1.854zm8.547-7.65c1.008 0 1.836.36 2.484 1.062.648.72.972 1.692.972 2.934v1.548h-6.912V9.908c0-1.206.324-2.178.972-2.916.666-.702 1.494-1.062 2.484-1.062v-.018zm4.896 3.96c0-1.62-.504-2.934-1.512-3.924-.882-.9-2.016-1.35-3.402-1.35-1.386 0-2.502.45-3.366 1.35-1.026.99-1.53 2.304-1.53 3.942v6.984c0 .108.054.162.18.162h1.08c.126 0 .18-.054.18-.162V12.77h6.912v4.104c0 .108.054.162.18.162h1.098c.108 0 .162-.054.162-.162l.018-7.002zm7.889 7.308c1.404 0 2.682-.324 3.852-.99.09-.054.126-.126.09-.216l-.432-.936c-.072-.108-.162-.126-.252-.054a6.136 6.136 0 0 1-3.24.918c-1.35 0-2.502-.468-3.456-1.404-.954-.936-1.44-2.142-1.44-3.6 0-1.35.486-2.52 1.458-3.51.972-.99 2.106-1.476 3.42-1.476 1.062 0 2.124.306 3.186.9.126.072.216.054.27-.054l.432-.9c.054-.108.018-.198-.108-.27-1.134-.648-2.376-.972-3.744-.972-1.764 0-3.276.612-4.536 1.836-1.26 1.224-1.89 2.7-1.89 4.428 0 1.89.594 3.42 1.8 4.572 1.206 1.152 2.736 1.728 4.59 1.728zm11.145 0c1.404 0 2.682-.324 3.852-.99.09-.054.126-.126.09-.216l-.432-.936c-.072-.108-.162-.126-.252-.054a6.136 6.136 0 0 1-3.24.918c-1.35 0-2.502-.468-3.456-1.404-.954-.936-1.44-2.142-1.44-3.6 0-1.35.486-2.52 1.458-3.51.972-.99 2.106-1.476 3.42-1.476 1.062 0 2.124.306 3.186.9.126.072.216.054.27-.054l.432-.9c.054-.108.018-.198-.108-.27-1.134-.648-2.376-.972-3.744-.972-1.764 0-3.276.612-4.536 1.836-1.26 1.224-1.89 2.7-1.89 4.428 0 1.89.594 3.42 1.8 4.572 1.206 1.152 2.736 1.728 4.59 1.728zm6.159-12.438c-.108 0-.162.054-.162.18v11.916c0 .108.054.162.162.162h8.442c.108 0 .162-.054.162-.162v-.936c0-.126-.054-.18-.162-.18h-7.164v-4.23h6.228c.108 0 .162-.054.162-.162v-.936c0-.108-.054-.162-.162-.162h-6.228V6.02h7.164c.108 0 .162-.054.162-.18v-.918c0-.126-.054-.18-.162-.18h-8.442zm19.542 12.096c0 .126.054.18.18.18h1.08c.126 0 .18-.054.18-.18V4.922c0-.108-.054-.162-.18-.162h-1.08c-.126 0-.18.054-.18.162v1.242l-7.506 7.722V4.922c0-.126-.054-.18-.18-.18h-1.098c-.108 0-.162.054-.162.18v11.916c0 .108.054.162.162.162h1.098c.126 0 .18-.054.18-.162v-1.152l7.506-7.722v8.874zM123.536 1.61c-.45 0-.792-.108-1.044-.342-.252-.234-.396-.54-.414-.936-.018-.126-.09-.18-.216-.18h-.468c-.144 0-.216.054-.216.18 0 .648.216 1.188.63 1.62.414.432.99.648 1.71.648s1.278-.216 1.692-.648c.414-.432.612-.972.612-1.62 0-.126-.072-.18-.216-.18h-.45c-.126 0-.198.054-.216.18-.09.864-.576 1.296-1.458 1.296l.054-.018zm16.858 3.132c-.126 0-.18.054-.18.18v5.292h-7.344V4.922c0-.126-.054-.18-.18-.18h-1.098c-.108 0-.162.054-.162.18v11.916c0 .108.054.162.162.162h1.098c.126 0 .18-.054.18-.162v-5.346h7.344v5.346c0 .108.054.162.18.162h1.098c.108 0 .162-.054.162-.162V4.922c0-.126-.054-.18-.162-.18h-1.098zm16.268 6.156c0-1.764-.63-3.258-1.89-4.482-1.26-1.224-2.772-1.836-4.536-1.836-1.764 0-3.276.612-4.536 1.836-1.26 1.224-1.89 2.718-1.89 4.5 0 1.764.63 3.258 1.89 4.464 1.26 1.206 2.772 1.818 4.536 1.818 1.764 0 3.276-.612 4.536-1.818 1.26-1.206 1.89-2.7 1.89-4.464v-.018zm-1.53.018c0 1.368-.468 2.538-1.404 3.51-.936.972-2.088 1.458-3.456 1.458-1.368 0-2.52-.486-3.474-1.458-.954-.972-1.422-2.142-1.422-3.51 0-1.368.468-2.538 1.422-3.51s2.106-1.458 3.474-1.458c1.368 0 2.52.486 3.456 1.458.936.972 1.404 2.142 1.404 3.51zm12.882 2.808c0-.828-.234-1.512-.684-2.052-.45-.54-1.098-.882-1.944-1.026v-.072c1.098-.486 1.638-1.386 1.638-2.7 0-1.062-.432-1.872-1.314-2.448-.666-.45-1.566-.666-2.7-.666h-3.996c-.108 0-.162.054-.162.18v11.916c0 .108.054.162.162.162h4.95c1.134 0 2.088-.27 2.88-.828.792-.558 1.188-1.368 1.188-2.448l-.018-.018zm-2.43-5.634c0 .864-.342 1.476-1.008 1.854-.342.18-.9.27-1.674.27h-2.592V5.93h2.772c.594 0 1.116.126 1.566.396.63.378.954.972.954 1.764h-.018zm1.008 5.49c0 .954-.432 1.62-1.314 1.998-.414.18-.936.27-1.566.27h-3.384v-4.482h2.862c1.134 0 1.908.126 2.322.36.72.378 1.08.99 1.08 1.836v.018zM12.896 29.012c0-.072-.036-.126-.09-.18-.054-.054-.126-.072-.216-.072h-2.07c-.234 0-.396.09-.486.288l-3.51 6.066-3.492-6.066c-.108-.198-.27-.288-.504-.288H.476a.298.298 0 0 0-.216.09.29.29 0 0 0-.09.198v11.718a.27.27 0 0 0 .072.198c.054.054.126.09.216.09h1.944c.09 0 .162-.018.216-.072a.231.231 0 0 0 .072-.18v-7.488l2.682 4.554c.108.198.252.288.432.288h1.494c.18 0 .324-.09.432-.288l2.61-4.554v7.488a.27.27 0 0 0 .072.198c.054.054.126.09.216.09h1.944c.09 0 .162-.018.216-.072a.231.231 0 0 0 .072-.18l.036-11.826zm5.325 5.382c.486 0 .81.126.99.378.163.198.253.522.253.954v.18c-1.422.108-2.502.324-3.24.648-.99.45-1.495 1.152-1.495 2.088 0 .81.27 1.44.81 1.89.505.45 1.135.666 1.909.666.846 0 1.584-.198 2.213-.594h.072v.144a.27.27 0 0 0 .072.198c.055.054.127.09.216.09h1.584a.231.231 0 0 0 .18-.072.231.231 0 0 0 .073-.18V35.78c0-.918-.235-1.656-.72-2.196-.559-.63-1.423-.936-2.593-.936-1.278 0-2.394.306-3.348.9-.125.09-.161.216-.107.36l.521 1.116c.054.18.18.216.378.09.756-.45 1.512-.666 2.25-.666l-.018-.054zm0 5.166c-.378 0-.666-.072-.863-.234-.235-.144-.36-.378-.36-.702 0-.432.287-.738.881-.936.415-.126.954-.198 1.62-.198v1.71c-.395.234-.81.36-1.26.36h-.018zm11.742-6.804a.61.61 0 0 0-.522.27l-2.178 2.772h-.864v-2.772c0-.18-.09-.27-.27-.27h-1.818c-.18 0-.27.09-.27.27v7.704c0 .18.09.27.27.27h1.818a.231.231 0 0 0 .18-.072.231.231 0 0 0 .072-.18v-2.862h.846l2.268 2.862a.58.58 0 0 0 .504.27h2.196c.126 0 .198-.054.234-.144.036-.09 0-.198-.108-.324l-3.078-3.78 2.934-3.492c.108-.126.144-.234.108-.324-.036-.09-.126-.144-.252-.144l-2.07-.054zm8.027 6.462c-.684 0-1.224-.216-1.638-.666-.396-.414-.594-.972-.594-1.674 0-.63.198-1.152.576-1.566.414-.45.972-.684 1.656-.684.558 0 1.116.18 1.692.54.198.108.324.09.396-.072l.702-1.296c.072-.144.036-.27-.108-.36-.774-.54-1.674-.81-2.7-.81-1.62 0-2.862.54-3.744 1.62-.594.738-.9 1.62-.9 2.646 0 1.206.36 2.196 1.08 2.97.846.882 2.016 1.314 3.51 1.314 1.134 0 2.07-.27 2.79-.792.144-.108.18-.216.108-.342l-.666-1.26c-.09-.162-.216-.18-.396-.072-.594.342-1.188.504-1.782.504h.018zm12.861-6.192c0-.18-.09-.27-.27-.27h-1.836c-.18 0-.27.09-.27.27v.99l-3.654 3.276v-4.266c0-.18-.09-.27-.27-.27h-1.836c-.18 0-.27.09-.27.27v7.704c0 .18.09.27.27.27h1.836a.231.231 0 0 0 .18-.072.231.231 0 0 0 .072-.18v-.972l3.654-3.258v4.23c0 .18.09.27.27.27h1.836a.231.231 0 0 0 .18-.072.231.231 0 0 0 .072-.18l.036-7.74zm7.699 6.642c.198 0 .342-.09.45-.288l1.511-2.52v3.87a.27.27 0 0 0 .072.198c.055.054.108.09.18.09h1.782a.231.231 0 0 0 .18-.072.231.231 0 0 0 .072-.18v-7.704c0-.18-.09-.27-.27-.27h-1.8a.53.53 0 0 0-.485.27l-2.268 3.96-2.304-3.96c-.09-.18-.253-.27-.486-.27H53.42c-.18 0-.27.09-.27.27v7.704c0 .18.09.27.27.27h1.782a.231.231 0 0 0 .18-.072.231.231 0 0 0 .072-.18v-3.87l1.493 2.52c.108.198.27.288.468.288l1.135-.054zm9.576-5.274c.486 0 .81.126.99.378.162.198.252.522.252.954v.18c-1.422.108-2.502.324-3.24.648-.99.45-1.494 1.152-1.494 2.088 0 .81.27 1.44.81 1.89.504.45 1.134.666 1.908.666.846 0 1.584-.198 2.214-.594h.072v.144a.27.27 0 0 0 .072.198c.054.054.126.09.216.09h1.584a.231.231 0 0 0 .18-.072.231.231 0 0 0 .072-.18V35.78c0-.918-.234-1.656-.72-2.196-.558-.63-1.422-.936-2.592-.936-1.278 0-2.394.306-3.348.9-.126.09-.162.216-.108.36l.522 1.116c.054.18.18.216.378.09.756-.45 1.512-.666 2.25-.666l-.018-.054zm0 5.166c-.378 0-.666-.072-.864-.234-.234-.144-.36-.378-.36-.702 0-.432.288-.738.882-.936.414-.126.954-.198 1.62-.198v1.71c-.396.234-.81.36-1.26.36h-.018zM80.944 41c.18 0 .27-.09.27-.27v-9.684h5.238c.09 0 .162-.018.216-.072a.231.231 0 0 0 .072-.18V29.03c0-.072-.036-.126-.09-.18-.054-.054-.126-.072-.216-.072h-7.542a.298.298 0 0 0-.216.09.29.29 0 0 0-.09.198v11.718a.27.27 0 0 0 .072.198c.054.054.126.09.216.09l2.07-.072zm7.717-6.39c.27-.054.612-.072 1.026-.072.72 0 1.278.216 1.692.666.378.45.576 1.008.576 1.692 0 .81-.216 1.422-.648 1.818-.396.342-.936.522-1.638.522-.378 0-.72-.054-1.008-.162V34.61zm-2.106-1.746c-.18.054-.27.162-.27.324v11.754c0 .198.09.288.27.288h1.836a.231.231 0 0 0 .18-.072c.054-.054.072-.126.072-.216v-3.906c.342.09.756.144 1.242.144 1.476 0 2.61-.45 3.42-1.35.648-.738.972-1.71.972-2.916 0-1.26-.378-2.268-1.152-3.006-.864-.864-2.106-1.296-3.708-1.296-1.116 0-2.088.09-2.898.27l.036-.018zm12.093-.108c-.702 0-1.296.126-1.782.396-.864.45-1.296 1.224-1.296 2.322 0 .666.18 1.206.522 1.62.27.288.63.522 1.08.72l-1.818 2.772a.315.315 0 0 0-.072.27c.018.09.09.126.216.126h1.8c.198 0 .342-.072.432-.216l1.476-2.448h1.098v2.394a.27.27 0 0 0 .072.198c.054.054.126.09.216.09h1.746a.231.231 0 0 0 .18-.072.231.231 0 0 0 .072-.18v-7.704c0-.18-.09-.27-.27-.27l-3.672-.018zm1.638 1.926v1.764h-1.35c-.36 0-.612-.072-.774-.216-.18-.162-.27-.378-.27-.666 0-.288.072-.504.234-.666.162-.144.432-.216.81-.216h1.35zm13.974-1.656c0-.18-.09-.27-.288-.27h-6.606c-.18 0-.27.09-.27.27v.882c-.018 1.188-.09 2.106-.216 2.736-.144.846-.396 1.602-.774 2.268h-1.638c-.18 0-.27.09-.27.288v4.554c0 .18.09.27.27.27h1.8c.18 0 .27-.09.27-.27v-2.736h7.812v2.736a.27.27 0 0 0 .072.198c.054.054.108.09.18.09h1.8a.231.231 0 0 0 .18-.072.231.231 0 0 0 .072-.18v-4.554a.298.298 0 0 0-.09-.216.27.27 0 0 0-.198-.072h-2.16l.054-5.922zm-4.914 1.872h2.484v4.05h-3.402c.27-.558.486-1.134.63-1.746.162-.684.252-1.458.288-2.304zm17.339-1.764c.09-.252.018-.378-.216-.378h-2.034c-.252 0-.396.09-.45.288l-1.764 5.562-2.106-5.562c-.054-.198-.198-.288-.432-.288h-2.214c-.234 0-.306.126-.216.378l3.762 8.442a3.93 3.93 0 0 1-.81 1.026c-.378.288-.828.432-1.35.432-.09 0-.198 0-.324-.018s-.198-.018-.234-.018c-.144 0-.216.072-.216.216v1.818c0 .144.072.216.216.216 1.494.09 2.7-.288 3.636-1.134.684-.63 1.242-1.512 1.656-2.646l3.096-8.334zm7.257-.378c-.18 0-.27.09-.27.27v2.772h-3.492v-2.772c0-.18-.09-.27-.27-.27h-1.818c-.18 0-.27.09-.27.27v7.704c0 .18.09.27.27.27h1.818a.231.231 0 0 0 .18-.072.231.231 0 0 0 .072-.18v-2.862h3.492v2.862c0 .18.09.27.27.27h1.8c.18 0 .27-.09.27-.27v-7.704c0-.18-.09-.27-.27-.27l-1.782-.018zm6.264 4.14c0-.684.198-1.26.612-1.728.396-.414.9-.63 1.494-.63s1.098.216 1.494.63c.414.468.612 1.044.612 1.728 0 .666-.198 1.242-.612 1.71a2.015 2.015 0 0 1-1.512.648 2.015 2.015 0 0 1-1.512-.648c-.414-.468-.612-1.044-.612-1.71h.036zm-2.394 0c0 1.314.45 2.376 1.368 3.168.81.738 1.836 1.116 3.078 1.116 1.26 0 2.304-.378 3.114-1.116.9-.774 1.35-1.836 1.35-3.168s-.45-2.394-1.35-3.168c-.828-.756-1.872-1.134-3.114-1.134-1.242 0-2.268.378-3.096 1.134-.918.792-1.368 1.854-1.368 3.168h.018zM153.153 41c.756 0 1.404-.18 1.944-.558.54-.378.81-.936.81-1.674 0-1.134-.576-1.836-1.728-2.088v-.054c.702-.324 1.044-.9 1.044-1.746 0-.666-.27-1.188-.792-1.566-.468-.342-1.134-.522-2.016-.522h-3.528c-.18 0-.27.09-.27.27v7.704c0 .18.09.27.27.27l4.266-.036zm-.216-5.724c0 .306-.144.54-.45.702-.144.054-.378.09-.684.09h-.9v-1.62h1.008c.27 0 .486.054.666.162.234.162.36.378.36.666zm.612 3.204c0 .396-.198.666-.576.81a2.433 2.433 0 0 1-.774.108h-1.296v-1.836h1.062c.504 0 .846.036 1.026.126.378.162.558.432.558.81v-.018zm7.196-4.086c.486 0 .81.126.99.378.162.198.252.522.252.954v.18c-1.422.108-2.502.324-3.24.648-.99.45-1.494 1.152-1.494 2.088 0 .81.27 1.44.81 1.89.504.45 1.134.666 1.908.666.846 0 1.584-.198 2.214-.594h.072v.144a.27.27 0 0 0 .072.198c.054.054.126.09.216.09h1.584a.231.231 0 0 0 .18-.072.231.231 0 0 0 .072-.18V35.78c0-.918-.234-1.656-.72-2.196-.558-.63-1.422-.936-2.592-.936-1.278 0-2.394.306-3.348.9-.126.09-.162.216-.108.36l.522 1.116c.054.18.18.216.378.09.756-.45 1.512-.666 2.25-.666l-.018-.054zm0 5.166c-.378 0-.666-.072-.864-.234-.234-.144-.36-.378-.36-.702 0-.432.288-.738.882-.936.414-.126.954-.198 1.62-.198v1.71c-.396.234-.81.36-1.26.36h-.018z"/></symbol><symbol viewBox="0 0 28 28" id="modal-close"><path d="M16.438 14l10.84-10.84A1.723 1.723 0 1 0 24.84.72L14 11.562 3.159.722A1.723 1.723 0 1 0 .72 3.158L11.562 14 .721 24.841a1.723 1.723 0 1 0 2.438 2.438l10.84-10.841 10.841 10.84a1.719 1.719 0 0 0 2.438 0 1.723 1.723 0 0 0 0-2.437L16.438 14z"/></symbol><symbol viewBox="0 0 7 4" id="navbar-dropdown"><path d="M3.5 4a.488.488 0 0 1-.347-.144L.143.84a.492.492 0 0 1 0-.695.49.49 0 0 1 .694 0L3.5 2.814 6.163.144a.49.49 0 0 1 .693 0 .492.492 0 0 1 0 .695l-3.01 3.017A.488.488 0 0 1 3.5 4z"/></symbol><symbol viewBox="0 0 11 17" id="pagin-next"><path fill-rule="evenodd" clip-rule="evenodd" d="M.9.98A1.5 1.5 0 0 0 .98 3.1l5.816 5.4-5.817 5.4a1.5 1.5 0 0 0 2.042 2.2l7-6.5a1.5 1.5 0 0 0 0-2.2l-7-6.5A1.5 1.5 0 0 0 .9.98z"/></symbol><symbol viewBox="0 0 11 17" id="pagin-prev"><path fill-rule="evenodd" clip-rule="evenodd" d="M10.1.98a1.5 1.5 0 0 1-.08 2.12L4.205 8.5l5.817 5.4a1.5 1.5 0 0 1-2.042 2.2l-7-6.5a1.5 1.5 0 0 1 0-2.2l7-6.5a1.5 1.5 0 0 1 2.12.08z"/></symbol><symbol viewBox="0 0 27 16" id="view"><path fill-rule="evenodd" clip-rule="evenodd" d="M20.118 1.083l6.226 6.226a.978.978 0 0 1 0 1.383l-6.226 6.226a.978.978 0 0 1-1.383-1.384L23.29 8.98H1.848a.978.978 0 1 1 0-1.957H23.29l-4.556-4.556a.978.978 0 0 1 1.383-1.383z"/></symbol><symbol viewBox="0 0 304.36 304.36" id="vk"><path d="M261.945 175.576c10.096 9.857 20.752 19.131 29.807 29.982 4 4.822 7.787 9.798 10.684 15.394 4.105 7.955.387 16.709-6.746 17.184l-44.34-.02c-11.436.949-20.559-3.655-28.23-11.474-6.139-6.253-11.824-12.908-17.727-19.372-2.42-2.642-4.953-5.128-7.979-7.093-6.053-3.929-11.307-2.726-14.766 3.587-3.523 6.421-4.322 13.531-4.668 20.687-.475 10.441-3.631 13.186-14.119 13.664-22.414 1.057-43.686-2.334-63.447-13.641-17.422-9.968-30.932-24.04-42.691-39.971-22.895-31.021-40.428-65.108-56.186-100.15C-2.01 76.458.584 72.22 9.295 72.07c14.465-.281 28.928-.261 43.41-.02 5.879.086 9.771 3.458 12.041 9.012 7.826 19.243 17.402 37.551 29.422 54.521 3.201 4.518 6.465 9.036 11.113 12.216 5.142 3.521 9.057 2.354 11.476-3.374 1.535-3.632 2.207-7.544 2.553-11.434 1.146-13.383 1.297-26.743-.713-40.079-1.234-8.323-5.922-13.711-14.227-15.286-4.238-.803-3.607-2.38-1.555-4.799 3.564-4.172 6.916-6.769 13.598-6.769h50.111c7.889 1.557 9.641 5.101 10.721 13.039l.043 55.663c-.086 3.073 1.535 12.192 7.07 14.226 4.43 1.448 7.35-2.096 10.008-4.905 11.998-12.734 20.561-27.783 28.211-43.366 3.395-6.852 6.314-13.968 9.143-21.078 2.096-5.276 5.385-7.872 11.328-7.757l48.229.043c1.43 0 2.877.021 4.262.258 8.127 1.385 10.354 4.881 7.844 12.817-3.955 12.451-11.65 22.827-19.174 33.251-8.043 11.129-16.645 21.877-24.621 33.072-7.328 10.223-6.746 15.376 2.357 24.255zm0 0" fill-rule="evenodd" clip-rule="evenodd"/></symbol></svg>