<svg width="25" height="28" viewBox="0 0 25 28" fill="none" xmlns="http://www.w3.org/2000/svg">
<circle cx="14.5" cy="17.5" r="9.5" fill="#6FD7E9"/>
<path fill-rule="evenodd" clip-rule="evenodd" d="M4.63264 9.24738L4.63261 9.24742C2.98684 11.0333 2 13.3688 2 15.9214C2 21.4236 6.6358 26 12.5 26C18.3642 26 23 21.4236 23 15.9214C23 13.3495 22.1534 11.1868 20.3669 9.24693L20.0604 8.91405L20.0181 8.77697C19.9948 8.75091 19.9676 8.72096 19.936 8.68694C19.7279 8.46269 19.4178 8.15401 19.0209 7.77817C18.2328 7.03174 17.1804 6.09372 16.0995 5.17182C15.0175 4.24893 13.9319 3.36342 13.0777 2.71708C12.8559 2.54926 12.6572 2.40332 12.4838 2.28025C12.395 2.34327 12.2984 2.41336 12.194 2.49068C11.5105 2.99717 10.6241 3.71725 9.67051 4.53367C7.75301 6.17532 5.69951 8.0896 4.63264 9.24738ZM20.122 8.89896C20.155 8.94155 20.1464 8.93668 20.1176 8.89336C20.1192 8.89536 20.1206 8.89723 20.122 8.89896ZM3.16187 7.89209C5.45117 5.40771 11.6477 0 12.5 0C13.3523 0 21.5947 7.10303 21.8381 7.89209C23.9587 10.1948 25 12.8389 25 15.9214C25 22.5923 19.4036 28 12.5 28C5.59644 28 0 22.5923 0 15.9214C0 12.8389 1.19507 10.0264 3.16187 7.89209ZM4.02393 15.8955C4.02393 11.2678 7.88002 7.625 12.5 7.625C17.1198 7.625 20.9758 11.2678 20.9758 15.8955C20.9758 20.5236 17.1199 24.1665 12.5 24.1665C7.87992 24.1665 4.02393 20.5236 4.02393 15.8955ZM6.02393 15.8955C6.02393 12.4326 8.92334 9.625 12.5 9.625C16.0764 9.625 18.9758 12.4326 18.9758 15.8955C18.9758 19.3589 16.0764 22.1665 12.5 22.1665C8.92334 22.1665 6.02393 19.3589 6.02393 15.8955Z" fill="#24739F"/>
</svg>
