<svg width="27" height="28" viewBox="0 0 27 28" fill="none" xmlns="http://www.w3.org/2000/svg">
<circle cx="18" cy="14" r="9" fill="#6FD7E9"/>
<path d="M23.3615 3.66795C21.0151 1.30248 17.8952 -0.000132302 14.5771 1.00781e-08C14.0334 1.00781e-08 13.5928 0.444304 13.5928 0.99234C13.5928 1.54038 14.0335 1.98468 14.5771 1.98468C17.3695 1.98455 19.9948 3.08075 21.9694 5.07139C23.9441 7.06202 25.0314 9.70879 25.0313 12.524C25.0313 13.072 25.4719 13.5163 26.0156 13.5163C26.5593 13.5163 27 13.072 27 12.5241C27.0001 9.17862 25.708 6.03343 23.3615 3.66795Z" fill="#24739F"/>
<path d="M19.3123 12.5243C19.3123 13.0724 19.753 13.5167 20.2968 13.5166C20.8404 13.5166 21.281 13.0722 21.281 12.5242C21.2807 8.79831 18.2734 5.76664 14.5772 5.76611C14.5774 5.76611 14.5771 5.76611 14.5772 5.76611C14.0336 5.76611 13.5929 6.21028 13.5928 6.75832C13.5928 7.30636 14.0334 7.75066 14.577 7.75079C17.1878 7.75119 19.312 9.89253 19.3123 12.5243Z" fill="#24739F"/>
<path d="M17.1342 17.5839C15.6338 17.5055 14.8694 18.6305 14.5028 19.1708C14.1959 19.6232 14.3108 20.2407 14.7596 20.5502C15.2083 20.8597 15.8208 20.7437 16.1278 20.2914C16.5609 19.653 16.7571 19.5525 17.0233 19.5652C17.8752 19.6662 21.2305 22.1449 21.5665 22.92C21.6507 23.1483 21.6476 23.372 21.5571 23.6442C21.2049 24.6982 20.6217 25.4388 19.8705 25.786C19.1568 26.1159 18.2818 26.086 17.3406 25.6999C13.8263 24.2558 10.7559 22.2406 8.21502 19.71C8.21397 19.7089 8.21292 19.708 8.212 19.707C5.70706 17.1479 3.71174 14.0566 2.2817 10.5191C1.89859 9.56947 1.86893 8.68721 2.19612 7.96783C2.54051 7.21048 3.27522 6.62262 4.3198 6.26789C4.59069 6.17633 4.81223 6.17342 5.03653 6.25757C5.80812 6.59748 8.26673 9.9799 8.36595 10.8291C8.38013 11.1075 8.27973 11.3051 7.64699 11.741C7.19814 12.0501 7.08277 12.6676 7.38949 13.1201C7.69608 13.5726 8.30847 13.6887 8.75746 13.3797C9.29373 13.0105 10.4093 12.242 10.3319 10.7243C10.2466 9.13893 7.18751 4.94053 5.72583 4.39872C5.07577 4.15447 4.39198 4.15023 3.69271 4.38681C2.11935 4.92095 0.983026 5.87333 0.406597 7.14088C-0.152507 8.37059 -0.134789 9.79731 0.458439 11.2676C1.98889 15.0533 4.13015 18.3657 6.82264 21.1132C6.82921 21.1199 6.8359 21.1265 6.84272 21.133C9.56606 23.8424 12.848 25.9971 16.5982 27.5381C17.3492 27.846 18.0887 28.0001 18.796 28.0001C19.4619 28.0001 20.0995 27.8636 20.6909 27.5902C21.9484 27.0093 22.8929 25.8638 23.4232 24.2766C23.6573 23.573 23.6535 22.8839 23.4131 22.2316C22.8738 20.7541 18.7092 17.6701 17.1342 17.5839Z" fill="#24739F"/>
</svg>
