<svg width="28" height="28" viewBox="0 0 28 28" fill="none" xmlns="http://www.w3.org/2000/svg">
<circle cx="16.5" cy="13.5" r="11.5" fill="#6FD7E9"/>
<path d="M23.8975 4.10246C21.2525 1.45738 17.741 0 14 0C10.259 0 6.74754 1.45738 4.10246 4.10246C1.45738 6.74754 0 10.259 0 14C0 17.741 1.45738 21.2525 4.10246 23.8975C6.74754 26.5426 10.259 28 14 28C16.2779 28 18.5328 27.4434 20.5352 26.382C21.0402 26.118 21.2295 25.4926 20.9656 24.9877C20.7016 24.4828 20.0762 24.2934 19.5713 24.5574C17.8672 25.4582 15.9451 25.9344 14 25.9344C7.41885 25.9344 2.06557 20.5811 2.06557 14C2.06557 7.41885 7.41885 2.06557 14 2.06557C20.5811 2.06557 25.9344 7.41885 25.9344 14C25.9344 16.2148 25.3148 17.477 24.7926 18.1426C24.2361 18.8598 23.4902 19.2672 22.7443 19.2672C21.7057 19.2672 20.6557 18.441 20.6557 16.5934V8.55492C20.6557 7.98689 20.191 7.52213 19.6229 7.52213C19.0549 7.52213 18.5902 7.98689 18.5902 8.55492V9.0082C17.3049 7.71721 15.532 6.91967 13.5697 6.91967C9.6623 6.91393 6.48361 10.0926 6.48361 14C6.48361 17.9074 9.6623 21.0861 13.5697 21.0861C14.2639 21.0861 14.9467 20.9885 15.6008 20.7877C16.1459 20.627 16.4557 20.0475 16.2951 19.5025C16.1344 18.9574 15.5549 18.6475 15.0098 18.8082C14.5451 18.9459 14.0574 19.0205 13.5697 19.0205C10.8041 19.0205 8.54918 16.7713 8.54918 14C8.54918 11.2344 10.7984 8.97951 13.5697 8.97951C16.341 8.97951 18.5902 11.2287 18.5902 14V16.5934C18.5902 19.7033 20.6787 21.3328 22.7443 21.3328C24.127 21.3328 25.4697 20.6328 26.4221 19.4107C27.4549 18.0852 28 16.2148 28 14C28 10.259 26.5426 6.74754 23.8975 4.10246Z" fill="#24739F"/>
</svg>
