<svg width="46" height="46" viewBox="0 0 46 46" fill="none" xmlns="http://www.w3.org/2000/svg">
<circle cx="19" cy="14" r="13" fill="#6FD7E9"/>
<path d="M28.3907 25.6328C27.8947 25.6328 27.4922 26.0343 27.4922 26.529C27.4922 27.0238 27.8947 27.4253 28.3907 27.4253C28.8866 27.4253 29.2891 27.0238 29.2891 26.529C29.2891 26.0343 28.8865 25.6328 28.3907 25.6328Z" fill="#24739F"/>
<path d="M28.5349 16.1344L26.5159 14.9713C26.5684 14.6299 26.5943 14.3023 26.5943 13.9816C26.5943 13.661 26.5685 13.3334 26.5159 12.9919L28.5349 11.8289C28.9645 11.5814 29.1117 11.0333 28.8637 10.6046L27.0668 7.49984C26.9477 7.29401 26.7515 7.14379 26.5213 7.08224C26.2909 7.0207 26.0459 7.05295 25.8395 7.17182L23.8125 8.33943C23.295 7.93927 22.723 7.61331 22.102 7.3648V4.75016C22.102 4.25512 21.6998 3.85388 21.2035 3.85388H17.6097C17.1135 3.85388 16.7113 4.25512 16.7113 4.75016V7.36615C16.0948 7.61457 15.5177 7.9434 15.0025 8.34006L12.9736 7.17191C12.5439 6.92439 11.9947 7.07128 11.7464 7.50002L9.9496 10.6047C9.70156 11.0333 9.84873 11.5814 10.2783 11.829L12.2974 12.992C12.2449 13.3335 12.219 13.6611 12.219 13.9817C12.219 14.3024 12.2448 14.6299 12.2974 14.9714L10.2783 16.1345C9.84873 16.3819 9.70156 16.9299 9.9496 17.3587L11.7464 20.4633C11.9946 20.892 12.544 21.0389 12.9736 20.7914L15.0025 19.6233C15.5177 20.0199 16.0947 20.3487 16.7113 20.5972V22.9442C16.7113 23.4392 17.1135 23.8405 17.6097 23.8405H21.2035C21.6998 23.8405 22.102 23.4392 22.102 22.9442V20.5984C22.7229 20.35 23.295 20.0241 23.8125 19.6237L25.8395 20.7913C26.0458 20.9102 26.2912 20.9426 26.5213 20.8809C26.7515 20.8195 26.9477 20.6693 27.0668 20.4633L28.8637 17.3587C29.1117 16.9299 28.9645 16.3819 28.5349 16.1344ZM25.9598 18.7907L24.1612 17.7546C23.8173 17.5565 23.384 17.6071 23.0953 17.8791C22.4952 18.444 21.7716 18.8564 20.9444 19.105C20.5648 19.219 20.3051 19.5677 20.3051 19.9632V22.0478H18.5082V19.9632C18.5082 19.5678 18.2484 19.219 17.8688 19.105C17.0414 18.8565 16.3182 18.4441 15.7192 17.8795C15.4307 17.6074 14.9971 17.5565 14.6531 17.7546L12.8535 18.7909L11.955 17.2385L13.752 16.2033C14.0961 16.005 14.2688 15.6048 14.1765 15.2192C14.0685 14.7673 14.0159 14.3625 14.0159 13.9815C14.0159 13.6005 14.0685 13.1957 14.1765 12.7438C14.2687 12.3582 14.096 11.958 13.752 11.7598L11.955 10.7246L12.8535 9.17219L14.6531 10.2085C14.9972 10.4066 15.4306 10.3558 15.7192 10.0836C16.3182 9.51899 17.0413 9.1067 17.8688 8.8581C18.2485 8.74409 18.5082 8.3954 18.5082 7.99991V5.64645H20.3051V8C20.3051 8.3954 20.5649 8.74418 20.9444 8.85819C21.7716 9.10661 22.4952 9.51917 23.0953 10.0841C23.384 10.356 23.8174 10.4066 24.1612 10.2085L25.9598 9.17246L26.8583 10.7247L25.0614 11.7599C24.7172 11.9582 24.5446 12.3583 24.6367 12.7439C24.7448 13.1959 24.7973 13.6007 24.7973 13.9816C24.7973 14.3627 24.7448 14.7675 24.6367 15.2193C24.5446 15.605 24.7172 16.0052 25.0614 16.2034L26.8583 17.2386L25.9598 18.7907Z" fill="#24739F"/>
<path d="M19.4063 10.3965C17.4247 10.3965 15.8125 12.0047 15.8125 13.9815C15.8125 15.9583 17.4246 17.5666 19.4063 17.5666C21.3879 17.5666 23.0001 15.9584 23.0001 13.9815C23.0001 12.0048 21.3879 10.3965 19.4063 10.3965ZM19.4063 15.774C18.4155 15.774 17.6094 14.9699 17.6094 13.9815C17.6094 12.9932 18.4155 12.1891 19.4063 12.1891C20.3971 12.1891 21.2031 12.9932 21.2031 13.9815C21.2032 14.9699 20.3972 15.774 19.4063 15.774Z" fill="#24739F"/>
<path d="M24.7969 25.6328H12.2188C11.7225 25.6328 11.3203 26.034 11.3203 26.529C11.3203 27.0241 11.7225 27.4253 12.2188 27.4253H24.7969C25.2932 27.4253 25.6954 27.0241 25.6954 26.529C25.6954 26.034 25.2932 25.6328 24.7969 25.6328Z" fill="#24739F"/>
<path d="M43.3048 14.8778H40.0704V2.68876C40.0703 1.20615 38.8612 0 37.375 0H2.69532C1.20919 0 0 1.20615 0 2.68876V28.3215C0 29.8041 1.2091 31.0103 2.69532 31.0103H7.7266V36.7956C7.7266 37.1347 7.91835 37.4445 8.22213 37.5966C8.34957 37.6603 8.48755 37.6918 8.62498 37.6918C8.81502 37.6918 9.00397 37.6318 9.16203 37.5141L13.1172 34.5727V37.8218C13.1172 39.3044 14.3263 40.5105 15.8126 40.5105H32.2578L38.5959 45.7917C38.7607 45.9289 38.9654 46 39.172 46C39.3012 46 39.431 45.9722 39.5525 45.9155C39.8684 45.7681 40.0703 45.4517 40.0703 45.1037V40.5104H43.3047C44.7909 40.5104 46 39.3043 46 37.8217V17.5664C46.0001 16.084 44.7909 14.8778 43.3048 14.8778ZM9.52345 35.0096V30.1141C9.52345 29.619 9.12123 29.2178 8.62498 29.2178H2.69532C2.19988 29.2178 1.79685 28.8157 1.79685 28.3215V2.68876C1.79685 2.19453 2.19988 1.79248 2.69532 1.79248H37.375C37.8705 1.79248 38.2735 2.19453 38.2735 2.68876V28.3215C38.2735 28.8157 37.8705 29.2178 37.375 29.2178H17.6094C17.4159 29.2178 17.2275 29.28 17.0725 29.3955L9.52345 35.0096ZM44.2032 37.8218C44.2032 38.316 43.8001 38.7181 43.3047 38.7181H39.1719C38.6756 38.7181 38.2734 39.1193 38.2734 39.6143V43.1875L33.1596 38.9266C32.998 38.792 32.7942 38.7182 32.5837 38.7182H15.8126C15.3171 38.7182 14.9141 38.3162 14.9141 37.822V33.2366L17.9074 31.0103H37.375C38.8612 31.0103 40.0703 29.8042 40.0703 28.3216V16.6703H43.3047C43.8001 16.6703 44.2032 17.0723 44.2032 17.5666V37.8218Z" fill="#24739F"/>
</svg>
