<svg width="38" height="46" viewBox="0 0 38 46" fill="none" xmlns="http://www.w3.org/2000/svg">
<circle cx="18.5" cy="22.5" r="13.5" fill="#6FD7E9"/>
<path d="M36.2898 19.947L33.6115 19.2841L32.2112 15.9272L33.6325 13.5782C33.8465 13.2246 33.7906 12.7717 33.4969 12.48L29.7493 8.75701C29.4555 8.46529 28.9997 8.40986 28.6438 8.62234L26.2794 10.0343L22.9003 8.64318L22.233 5.98246C22.1327 5.58221 21.7708 5.30127 21.3555 5.30127H16.0569C15.6416 5.30127 15.2797 5.58221 15.1794 5.98246L14.5121 8.64318L11.1331 10.0343L8.76867 8.62234C8.4128 8.40986 7.95673 8.46529 7.66318 8.75701L3.91571 12.48C3.62206 12.7717 3.56618 13.2246 3.78015 13.5782L5.20143 15.9272L3.80104 19.2841L1.12279 19.947C0.719804 20.0467 0.437012 20.4062 0.437012 20.8188V26.0828C0.437012 26.4954 0.719804 26.8549 1.12279 26.9546L3.80104 27.6175L5.20134 30.9743L3.78006 33.3233C3.56608 33.6769 3.62197 34.1298 3.91562 34.4215L7.66309 38.1445C7.95683 38.4362 8.41271 38.4917 8.76858 38.2792L11.133 36.8672L12.7552 37.5351C12.7657 37.7191 12.7717 37.904 12.7717 38.09V43.0223C12.7717 44.6642 14.1163 46 15.7691 46H21.6639C23.3166 46 24.6613 44.6643 24.6613 43.0223V38.0901C24.6613 37.9016 24.6677 37.7135 24.6791 37.5262L26.2794 36.8673L28.6439 38.2793C28.7885 38.3657 28.9496 38.4077 29.1095 38.4077C29.3434 38.4077 29.5749 38.3178 29.7493 38.1446L33.4968 34.4216C33.7904 34.1299 33.8463 33.677 33.6323 33.3234L32.211 30.9744L33.6113 27.6176L36.2896 26.9546C36.6926 26.855 36.9754 26.4955 36.9754 26.0829V20.8189C36.9755 20.4062 36.6927 20.0467 36.2898 19.947ZM21.6638 44.2031H15.769C15.1136 44.2031 14.5803 43.6734 14.5803 43.0222V42.4062H17.5756C18.075 42.4062 18.48 42.0039 18.48 41.5078C18.48 41.0117 18.075 40.6093 17.5756 40.6093H14.5803V39.1156H22.8524V43.0222C22.8525 43.6733 22.3194 44.2031 21.6638 44.2031ZM22.8794 37.3187H14.5548C14.3782 34.6762 13.2952 32.2149 11.4608 30.3201C9.57707 28.3746 8.58038 25.8141 8.65445 23.1102C8.80014 17.788 13.2813 13.4274 18.6437 13.3898C18.6682 13.3896 18.6925 13.3895 18.7169 13.3895C21.3928 13.3895 23.9089 14.4191 25.8089 16.2934C27.7265 18.185 28.7825 20.705 28.7825 23.3895C28.7825 25.9533 27.8071 28.3912 26.0358 30.254C24.1661 32.2205 23.0615 34.7044 22.8794 37.3187ZM35.1669 25.3807L32.7319 25.9833C32.4537 26.0523 32.2249 26.248 32.1151 26.5112L30.3656 30.705C30.2558 30.9682 30.2781 31.2676 30.426 31.5118L31.7182 33.6473L28.97 36.3774L26.8204 35.0938C26.5747 34.947 26.2734 34.9247 26.0082 35.0337L25.0504 35.4281C25.4817 33.981 26.2627 32.632 27.3506 31.488C29.4403 29.29 30.5911 26.414 30.5911 23.3895C30.5911 20.2227 29.3454 17.2497 27.0833 15.0183C24.8214 12.787 21.8233 11.5681 18.6309 11.5928C15.5488 11.6145 12.6307 12.8141 10.4143 14.9705C8.19729 17.1276 6.93029 20.0008 6.84646 23.0614C6.7591 26.2503 7.93494 29.2705 10.1572 31.5658C11.2215 32.665 11.9835 33.9936 12.4011 35.4441L11.4042 35.0337C11.1392 34.9246 10.8378 34.947 10.5921 35.0938L8.44256 36.3774L5.6944 33.6473L6.98654 31.5118C7.1344 31.2675 7.15674 30.9681 7.04695 30.705L5.29747 26.5112C5.18769 26.248 4.95888 26.0523 4.68061 25.9833L2.24572 25.3807V21.5208L4.68061 20.9181C4.95888 20.8492 5.18769 20.6535 5.29747 20.3903L7.04695 16.1964C7.15674 15.9332 7.1344 15.6338 6.98654 15.3896L5.6944 13.2541L8.44256 10.524L10.5921 11.8077C10.8379 11.9545 11.1393 11.9768 11.4042 11.8677L15.6258 10.1296C15.8907 10.0206 16.0877 9.79327 16.1571 9.51691L16.7637 7.09796H20.6489L21.2556 9.51691C21.3249 9.79327 21.522 10.0206 21.7869 10.1296L26.0084 11.8677C26.2734 11.9767 26.5747 11.9545 26.8205 11.8077L28.9701 10.524L31.7182 13.2541L30.4261 15.3896C30.2782 15.6339 30.2559 15.9333 30.3657 16.1964L32.1152 20.3903C32.225 20.6535 32.4538 20.8492 32.732 20.9181L35.1669 21.5208V25.3807Z" fill="#24739F"/>
<path d="M18.7066 0C18.2072 0 17.8022 0.40232 17.8022 0.898436V3.09844C17.8022 3.59464 18.2072 3.99687 18.7066 3.99687C19.206 3.99687 19.611 3.59455 19.611 3.09844V0.898436C19.611 0.40232 19.2061 0 18.7066 0Z" fill="#24739F"/>
<path d="M4.43784 7.55402L1.54389 4.6792C1.19065 4.32845 0.618195 4.32845 0.264863 4.6792C-0.0882878 5.03004 -0.0882878 5.59893 0.264863 5.94986L3.15871 8.82476C3.33542 9.00014 3.56676 9.08782 3.79827 9.08782C4.02979 9.08782 4.26112 9.00005 4.43775 8.82467C4.7909 8.47383 4.7909 7.90494 4.43784 7.55402Z" fill="#24739F"/>
<path d="M37.159 4.66834C36.8058 4.31759 36.2333 4.31759 35.88 4.66834L32.9861 7.54333C32.6329 7.89417 32.6329 8.46306 32.9861 8.81399C33.1627 8.98936 33.3941 9.07714 33.6255 9.07714C33.857 9.07714 34.0884 8.98936 34.265 8.81399L37.1589 5.93899C37.5123 5.58806 37.5123 5.01917 37.159 4.66834Z" fill="#24739F"/>
<path d="M21.2902 40.8725C21.1221 40.7054 20.8888 40.6093 20.6509 40.6093C20.4131 40.6093 20.1798 40.7053 20.0116 40.8725C19.8433 41.0397 19.7466 41.2714 19.7466 41.5077C19.7466 41.744 19.8433 41.9758 20.0116 42.1428C20.1798 42.31 20.4132 42.4061 20.6509 42.4061C20.8888 42.4061 21.1221 42.31 21.2902 42.1428C21.4584 41.9758 21.5553 41.744 21.5553 41.5077C21.5553 41.2714 21.4584 41.0396 21.2902 40.8725Z" fill="#24739F"/>
<path fill-rule="evenodd" clip-rule="evenodd" d="M22.3261 19.5135C22.3954 19.5735 22.4625 19.6351 22.5272 19.6985C22.7524 19.9187 22.95 20.1593 23.1198 20.4201C23.2523 20.6235 23.1388 20.8875 22.9064 20.9575L21.165 21.482C20.9935 21.5336 20.8118 21.4593 20.7015 21.3183C20.5142 21.079 20.2876 20.8891 20.0216 20.7486C19.6684 20.5495 19.2773 20.4499 18.8483 20.4499C18.4825 20.4499 18.1418 20.5246 17.8264 20.6739C17.511 20.8108 17.2335 21.0099 16.9938 21.2712C16.7667 21.5201 16.5838 21.825 16.445 22.1859C16.3188 22.5467 16.2558 22.9449 16.2558 23.3805C16.2558 23.816 16.3252 24.2142 16.4639 24.5751C16.6027 24.936 16.7856 25.2471 17.0127 25.5084C17.2524 25.7697 17.53 25.975 17.8454 26.1244C18.1608 26.2613 18.4951 26.3297 18.8483 26.3297C19.3025 26.3297 19.7188 26.2177 20.0973 25.9937C20.367 25.8392 20.5797 25.6611 20.7354 25.4593C20.8537 25.306 21.0484 25.2138 21.2337 25.2696L22.9624 25.7903C23.1886 25.8584 23.3039 26.1116 23.1817 26.3138C23.0141 26.5912 22.8114 26.8468 22.5737 27.0808C22.5179 27.1358 22.4601 27.1896 22.4004 27.2422C22.3983 27.244 22.3963 27.2458 22.3942 27.2476C22.1878 27.4288 21.9583 27.5957 21.7058 27.7483C20.9236 28.2212 19.9838 28.4576 18.8862 28.4576C18.0788 28.4576 17.3533 28.3207 16.7099 28.047C16.0665 27.7732 15.5177 27.4061 15.0636 26.9457C14.6094 26.4728 14.2562 25.9315 14.0038 25.3217C13.7641 24.6995 13.6443 24.0525 13.6443 23.3805C13.6443 22.6961 13.7641 22.049 14.0038 21.4392C14.2435 20.8295 14.5905 20.2944 15.0446 19.834C15.4988 19.3735 16.0476 19.0064 16.691 18.7327C17.3344 18.4589 18.0598 18.322 18.8673 18.322C19.9522 18.322 20.8732 18.5522 21.6301 19.0127C21.8799 19.1621 22.1092 19.3267 22.3178 19.5063C22.3206 19.5087 22.3233 19.5111 22.3261 19.5135ZM22.4361 17.6777C21.3864 17.0406 20.1721 16.7627 18.8673 16.7627C17.8822 16.7627 16.9445 16.9302 16.0805 17.2978C15.2653 17.6447 14.5427 18.1223 13.9345 18.7389C13.3304 19.3513 12.8684 20.0655 12.5526 20.8687C12.2383 21.6683 12.085 22.5097 12.085 23.3805C12.085 24.2426 12.2396 25.0798 12.5488 25.8823L12.5557 25.9002L12.563 25.918C12.8891 26.7061 13.3492 27.4118 13.939 28.0258L13.9461 28.0333L13.9534 28.0407C14.5616 28.6573 15.2842 29.1349 16.0994 29.4818C16.9635 29.8494 17.9011 30.0169 18.8862 30.0169C20.2107 30.0169 21.4422 29.7298 22.5126 29.0827C23.3413 28.5817 24.0259 27.9315 24.5162 27.1204C25.2333 25.934 24.4835 24.6199 23.4121 24.2972L21.6834 23.7765C20.7059 23.4821 19.8909 24.0012 19.5009 24.5068C19.4947 24.5147 19.452 24.5663 19.3223 24.6406L19.3127 24.6461L19.3031 24.6518C19.1732 24.7287 19.0326 24.7704 18.8483 24.7704C18.7123 24.7704 18.5966 24.7469 18.489 24.7035C18.3742 24.646 18.2716 24.5704 18.1763 24.4699C18.0859 24.3621 17.9967 24.2166 17.9193 24.0154C17.8574 23.8543 17.8151 23.6487 17.8151 23.3805C17.8151 23.1079 17.8528 22.8931 17.9095 22.7223C17.9859 22.5307 18.0693 22.4063 18.1444 22.3237C18.2406 22.2192 18.3393 22.1512 18.4473 22.1043L18.4707 22.0942L18.4937 22.0833C18.5904 22.0375 18.7018 22.0093 18.8483 22.0093C19.0251 22.0093 19.15 22.0473 19.256 22.107L19.2744 22.1174L19.2931 22.1273C19.363 22.1642 19.4201 22.2111 19.4736 22.2794C19.9058 22.8317 20.7201 23.2445 21.6147 22.9751L23.3561 22.4506C24.4609 22.1178 25.1951 20.7493 24.4264 19.5691C23.9203 18.7919 23.2457 18.1631 22.4361 17.6777Z" fill="#24739F"/>
</svg>
