<svg width="48" height="46" viewBox="0 0 48 46" fill="none" xmlns="http://www.w3.org/2000/svg">
<circle cx="24" cy="24" r="16" fill="#6FD7E9"/>
<path fill-rule="evenodd" clip-rule="evenodd" d="M22.571 10.9995C22.571 10.458 23.0099 10.019 23.5512 10.019C24.3849 10.019 25.2024 10.0922 25.9974 10.2327C26.5305 10.327 26.8863 10.8356 26.7921 11.3689C26.6979 11.9021 26.1894 12.258 25.6563 12.1638C24.9734 12.0431 24.27 11.98 23.5512 11.98C23.0099 11.98 22.571 11.541 22.571 10.9995ZM21.1368 11.1857C21.2765 11.7089 20.9658 12.2463 20.4428 12.386C18.1563 12.9969 16.1343 14.2669 14.5916 15.9841C14.2297 16.3869 13.61 16.42 13.2074 16.058C12.8047 15.6961 12.7716 15.0761 13.1335 14.6734C14.9233 12.681 17.2733 11.2031 19.9369 10.4915C20.4599 10.3517 20.9971 10.6626 21.1368 11.1857ZM28.4059 11.8972C28.645 11.4114 29.2325 11.2114 29.7182 11.4506C30.467 11.8193 31.1781 12.253 31.8442 12.7441C32.28 13.0654 32.3728 13.6793 32.0516 14.1151C31.7304 14.551 31.1168 14.6439 30.681 14.3226C30.1076 13.8998 29.496 13.5268 28.8524 13.2099C28.3667 12.9708 28.1668 12.3831 28.4059 11.8972ZM33.3395 15.3858C33.7707 15.0583 34.3855 15.1424 34.7129 15.5737C36.5126 17.9442 37.5815 20.9063 37.5815 24.116C37.5815 28.8786 35.2299 33.0906 31.6317 35.6416C31.19 35.9548 30.5782 35.8505 30.2652 35.4087C29.9521 34.9669 30.0564 34.3549 30.4981 34.0418C33.5979 31.8441 35.6211 28.2183 35.6211 24.116C35.6211 21.3486 34.701 18.8003 33.1517 16.7596C32.8243 16.3284 32.9084 15.7133 33.3395 15.3858Z" fill="#24739F"/>
<path fill-rule="evenodd" clip-rule="evenodd" d="M23.3352 0.413394C24.0918 -0.137798 25.1175 -0.137798 25.8742 0.413394L29.8088 3.27976C29.8481 3.30832 29.8965 3.32133 29.9447 3.31627L34.7799 2.80896C35.7105 2.71132 36.5979 3.22514 36.9767 4.08098L38.9541 8.54842C38.9737 8.59275 39.009 8.62824 39.0533 8.64804L43.4978 10.6369C44.3484 11.0175 44.8584 11.9017 44.7621 12.8288L44.256 17.702C44.251 17.7499 44.2638 17.798 44.292 17.837L47.1518 21.8036C47.695 22.557 47.695 23.5737 47.1518 24.3271L44.2919 28.2938C44.2637 28.3328 44.2509 28.3808 44.2559 28.4287L44.7609 33.3022C44.857 34.2292 44.3471 35.1131 43.4966 35.4937L39.0519 37.4826C39.0076 37.5024 38.9723 37.5379 38.9527 37.5822L36.9753 42.0496C36.5965 42.9055 35.709 43.4193 34.7784 43.3216L28.9563 42.7104C28.4179 42.6538 28.0272 42.1714 28.0837 41.6329C28.1402 41.0943 28.6225 40.7036 29.1609 40.7601L34.983 41.3714C35.0676 41.3803 35.1483 41.3335 35.1828 41.2557L37.1601 36.7883C37.3759 36.3007 37.7647 35.9104 38.2513 35.6926L42.6961 33.7037C42.7734 33.6691 42.8197 33.5887 42.811 33.5044L42.306 28.6309C42.2514 28.1043 42.3923 27.5761 42.7019 27.1467L45.5618 23.18C45.6111 23.1115 45.6111 23.0191 45.5618 22.9506L42.702 18.9841C42.3923 18.5546 42.2514 18.0261 42.3061 17.4994L42.8122 12.6262C42.821 12.5419 42.7746 12.4615 42.6973 12.4269L38.2528 10.4381C37.7661 10.2203 37.3774 9.82994 37.1615 9.34232L35.1841 4.87487C35.1497 4.79707 35.069 4.75036 34.9844 4.75923L30.1492 5.26655C29.6185 5.32222 29.0861 5.17913 28.6548 4.86492L24.7201 1.99855C24.6513 1.94845 24.5581 1.94845 24.4893 1.99855L20.5546 4.86491C20.1233 5.17913 19.5908 5.32222 19.0601 5.26653L14.2263 4.75925C14.1417 4.75037 14.0611 4.79708 14.0266 4.87489L12.0492 9.34232C11.8334 9.82994 11.4447 10.2203 10.958 10.4381L6.51328 12.427C6.43597 12.4616 6.38961 12.5419 6.39834 12.6262L6.9034 17.4997C6.95798 18.0263 6.81702 18.5547 6.50737 18.9841L3.75227 22.8046C3.43557 23.2438 2.82292 23.343 2.38388 23.0262C1.94484 22.7094 1.84566 22.0966 2.16236 21.6574L4.91747 17.8368C4.94561 17.7978 4.95843 17.7498 4.95347 17.7019L4.44841 12.8284C4.35234 11.9014 4.8623 11.0175 5.71276 10.637L10.1575 8.64804C10.2017 8.62824 10.2371 8.59275 10.2567 8.54842L12.2341 4.081C12.6129 3.22514 13.5003 2.71132 14.4309 2.80898L19.2647 3.31626C19.3129 3.32132 19.3613 3.30832 19.4005 3.27975L23.3352 0.413394Z" fill="#24739F"/>
<path fill-rule="evenodd" clip-rule="evenodd" d="M13.6263 19.5271V25.5323C13.6263 26.1086 13.345 26.6486 12.8728 26.9788L8.86231 29.7829C8.56595 29.9901 8.2131 30.1013 7.85152 30.1013H0.980191C0.438846 30.1013 0 29.6623 0 29.1208C0 28.5793 0.438846 28.1403 0.980191 28.1403H7.78979L11.666 25.4301V19.1726C11.666 18.0788 12.7217 17.1216 13.9123 17.5402C15.0763 17.9495 16.5101 18.6765 17.669 19.801C18.8427 20.9397 19.7559 22.5128 19.7559 24.5499C19.7559 26.3616 19.8216 27.46 19.8972 28.0896C19.8993 28.1069 19.9014 28.1238 19.9035 28.1403H23.5212C24.0312 28.1403 24.8119 28.2201 25.5569 28.469C26.2664 28.7061 27.1817 29.1781 27.5865 30.1273C27.9005 30.8637 27.9528 31.6631 27.9175 32.3166C27.8819 32.9773 27.7518 33.5731 27.6295 33.9564C27.6102 34.0168 27.5892 34.0702 27.5689 34.1168L22.8453 44.9412C22.5647 45.5844 21.9298 46.0001 21.2283 46.0001H13.8087C13.551 46.0001 13.2964 45.9436 13.0628 45.8346L7.88101 43.4165H0.980191C0.438846 43.4165 0 42.9775 0 42.436C0 41.8945 0.438846 41.4555 0.980191 41.4555H7.92449C8.18223 41.4555 8.43683 41.512 8.6704 41.621L13.8522 44.0391H21.1L25.7669 33.3443C25.8406 33.108 25.9344 32.6853 25.96 32.2108C25.9866 31.7184 25.9351 31.2527 25.7833 30.8966C25.7134 30.7329 25.4753 30.5093 24.9358 30.329C24.4319 30.1606 23.868 30.1013 23.5212 30.1013H19.1712C18.866 30.1013 18.6436 29.9672 18.5203 29.8652C18.3996 29.7653 18.3243 29.6575 18.2822 29.5892C18.1978 29.4524 18.1475 29.31 18.1157 29.205C18.0482 28.9823 17.9947 28.6888 17.9508 28.3236C17.8617 27.5819 17.7955 26.3949 17.7955 24.5499C17.7955 23.1578 17.188 22.0662 16.3041 21.2085C15.5144 20.4423 14.5224 19.8854 13.6263 19.5271Z" fill="#24739F"/>
</svg>
