<svg width="46" height="46" viewBox="0 0 46 46" fill="none" xmlns="http://www.w3.org/2000/svg">
<circle cx="15" cy="27" r="13" fill="#6FD7E9"/>
<path d="M41.4206 27.6423C41.2533 27.4752 41.0214 27.379 40.7849 27.379C40.5484 27.379 40.3164 27.4752 40.1492 27.6423C39.9819 27.8103 39.8857 28.0412 39.8857 28.2775C39.8857 28.5147 39.9819 28.7456 40.1492 28.9127C40.3164 29.0807 40.5484 29.1768 40.7849 29.1768C41.0214 29.1768 41.2533 29.0807 41.4206 28.9127C41.5878 28.7464 41.684 28.5147 41.684 28.2775C41.684 28.0412 41.5878 27.8094 41.4206 27.6423Z" fill="#24739F"/>
<path d="M43.3024 3.95312H37.504C37.0873 3.13995 36.2406 2.58166 35.2652 2.58166H31.2023C30.805 1.09681 29.447 0 27.8372 0C26.2276 0 24.8695 1.09681 24.4721 2.58166H20.4093C19.4339 2.58166 18.5872 3.13995 18.1705 3.95312H12.3721C10.8847 3.95312 9.67464 5.16224 9.67464 6.64844V8.26562C9.67464 8.76183 10.0772 9.16406 10.5738 9.16406C11.0704 9.16406 11.4729 8.76183 11.4729 8.26562V6.64844C11.4729 6.15304 11.8763 5.75 12.3721 5.75H17.8953V7.90625H14.8884C14.3918 7.90625 13.9892 8.30848 13.9892 8.80469V11.3802H10.7924C10.2959 11.3802 9.89331 11.7825 9.89331 12.2787V12.6998C9.89331 13.3927 9.47044 14.0147 8.81515 14.2848L8.77865 14.2999C8.1194 14.5744 7.37626 14.435 6.88524 13.9444L6.58745 13.6468C6.23624 13.2961 5.667 13.2961 5.31588 13.6468L2.26826 16.6921C1.91714 17.0429 1.91714 17.6118 2.26826 17.9626L2.57234 18.2665C3.06193 18.7556 3.20174 19.4963 2.92876 20.1531L2.9142 20.1882C2.64481 20.8429 2.0227 21.2659 1.32929 21.2659H0.899138C0.402544 21.2659 0 21.6682 0 22.1644V26.471C0 26.9672 0.402544 27.3695 0.899138 27.3695H1.33675C2.0281 27.3695 2.64868 27.7908 2.91869 28.4453L2.93254 28.4787C3.20606 29.1351 3.06678 29.875 2.57765 30.3637L2.26844 30.6727C1.91732 31.0235 1.91732 31.5924 2.26844 31.9432L5.31606 34.9886C5.48465 35.157 5.71339 35.2517 5.95185 35.2517C6.1903 35.2517 6.41904 35.157 6.58763 34.9886L6.89693 34.6796C7.38588 34.1909 8.12632 34.0518 8.79123 34.3282L8.81902 34.3397C9.19944 34.4964 9.50047 34.7729 9.68624 35.1126C9.6794 35.157 9.67482 35.2023 9.67482 35.2487V43.3047C9.67482 44.7909 10.8849 46 12.3722 46H43.3026C44.7899 46 46 44.7909 46 43.3047V6.64844C45.9998 5.16224 44.7898 3.95312 43.3024 3.95312ZM19.6937 5.0936C19.6937 4.69928 20.0148 4.37854 20.4094 4.37854H25.2536C25.7502 4.37854 26.1528 3.9763 26.1528 3.4801C26.1528 2.55192 26.9085 1.79688 27.8373 1.79688C28.7661 1.79688 29.5219 2.55192 29.5219 3.4801C29.5219 3.9763 29.9244 4.37854 30.421 4.37854H35.2653C35.6599 4.37854 35.9809 4.69928 35.9809 5.0936V7.90625H19.6937V5.0936ZM9.5038 32.6782L9.47458 32.6661C8.28853 32.1727 6.96068 32.3498 5.97351 33.1043L4.15429 31.2864C4.90938 30.3 5.0866 28.9732 4.59253 27.7876L4.58048 27.7584C4.09279 26.5761 3.02983 25.7663 1.79837 25.603V23.0315C3.0292 22.8659 4.09081 22.0548 4.57805 20.8707L4.58974 20.8426C5.08148 19.6596 4.90507 18.3355 4.15366 17.3497L5.97513 15.5297C6.96293 16.2777 8.28718 16.4516 9.46981 15.9589L9.50209 15.9456C10.6816 15.4594 11.491 14.4027 11.6594 13.1771H14.2373C14.4082 14.4021 15.2189 15.4574 16.3979 15.9423L16.4288 15.9551C17.6103 16.4458 18.9321 16.2731 19.9197 15.529L21.7436 17.3513C20.9987 18.338 20.8258 19.6587 21.3166 20.8383L21.3292 20.8687C21.8151 22.0483 22.8712 22.8585 24.0972 23.0293V25.6052C22.8707 25.7734 21.8131 26.5822 21.327 27.7598L21.3137 27.7919C20.8204 28.9744 20.9941 30.2977 21.7428 31.2849L19.9213 33.105C18.9348 32.3542 17.6096 32.1781 16.4255 32.6694L16.3966 32.6814C15.2126 33.1679 14.4009 34.2285 14.2351 35.4585H11.6616C11.4982 34.2279 10.6877 33.1658 9.5038 32.6782ZM44.2015 43.3047C44.2015 43.8001 43.7982 44.2031 43.3024 44.2031H12.3721C11.8763 44.2031 11.4729 43.8001 11.4729 43.3047V37.2552H15.1025C15.5991 37.2552 16.0016 36.853 16.0016 36.3568V35.9268C16.0016 35.234 16.4249 34.6124 17.0832 34.3419L17.115 34.3288C17.7725 34.0559 18.5138 34.1956 19.0033 34.6847L19.3073 34.9886C19.4759 35.157 19.7046 35.2517 19.9431 35.2517C20.1815 35.2517 20.4103 35.157 20.5788 34.9886L23.6265 31.9433C23.7951 31.7749 23.8898 31.5463 23.8898 31.3079C23.8898 31.0696 23.7951 30.8411 23.6265 30.6727L23.3287 30.3752C22.8378 29.8846 22.6981 29.1421 22.9734 28.4823L22.9885 28.4459C23.2584 27.7921 23.8808 27.3696 24.5743 27.3696H24.9958C25.4924 27.3696 25.8949 26.9673 25.8949 26.4711V22.1645C25.8949 21.6682 25.4924 21.266 24.9958 21.266H24.5825C23.8866 21.266 23.2621 20.8416 22.992 20.186L22.977 20.1497C22.7024 19.4897 22.8427 18.7459 23.3344 18.2546L23.6265 17.9627C23.7951 17.7943 23.8898 17.5658 23.8898 17.3274C23.8898 17.0891 23.7951 16.8606 23.6265 16.6922L20.5788 13.6469C20.2276 13.2961 19.6583 13.2962 19.3072 13.6469L19.0152 13.9387C18.5234 14.4301 17.7788 14.5701 17.1214 14.2971L17.0835 14.2814C16.4262 14.011 16.0014 13.3871 16.0014 12.6917V12.2787C16.0014 12.0569 15.9206 11.8543 15.7873 11.6976V9.70312H39.8855V24.2797C39.8855 24.7759 40.288 25.1782 40.7846 25.1782C41.2812 25.1782 41.6838 24.7759 41.6838 24.2797V8.80469C41.6838 8.30848 41.2812 7.90625 40.7846 7.90625H37.779V5.75H43.3024C43.7982 5.75 44.2015 6.15304 44.2015 6.64844V43.3047Z" fill="#24739F"/>
<path d="M27.7963 4.85156H27.7839C27.2873 4.85156 26.8848 5.25379 26.8848 5.75C26.8848 6.24621 27.2873 6.64844 27.7839 6.64844H27.7963C28.2929 6.64844 28.6954 6.24621 28.6954 5.75C28.6954 5.25379 28.2929 4.85156 27.7963 4.85156Z" fill="#24739F"/>
<path d="M16.3714 21.9479C16.0203 21.5971 15.4509 21.5971 15.0998 21.9479L12.2638 24.7818L10.7957 23.3149C10.4446 22.9641 9.87528 22.9641 9.52408 23.3149C9.17296 23.6658 9.17296 24.2346 9.52408 24.5856L11.6279 26.6877C11.8035 26.8632 12.0336 26.9509 12.2637 26.9509C12.4938 26.9509 12.7239 26.8631 12.8994 26.6877L16.3713 23.2186C16.7226 22.8676 16.7226 22.2988 16.3714 21.9479Z" fill="#24739F"/>
<path d="M40.7847 31.2202C40.2881 31.2202 39.8856 31.6224 39.8856 32.1187V34.9533H35.9539C35.4573 34.9533 35.0547 35.3555 35.0547 35.8518V39.7804H14.8884C14.3918 39.7804 13.9893 40.1827 13.9893 40.6789C13.9893 41.1751 14.3918 41.5773 14.8884 41.5773H35.9539C36.1924 41.5773 36.4211 41.4826 36.5897 41.3142L41.4206 36.487C41.5892 36.3186 41.684 36.09 41.684 35.8518V32.1187C41.6839 31.6224 41.2813 31.2202 40.7847 31.2202ZM36.8531 38.5098V36.7502H38.614L36.8531 38.5098Z" fill="#24739F"/>
<path d="M12.9474 17.0234C8.92212 17.0234 5.64746 20.2955 5.64746 24.3177C5.64746 28.3398 8.92212 31.6119 12.9474 31.6119C16.9726 31.6119 20.2473 28.3397 20.2473 24.3177C20.2474 20.2956 16.9726 17.0234 12.9474 17.0234ZM12.9476 29.815C9.91396 29.815 7.44592 27.3488 7.44592 24.3177C7.44592 21.2864 9.91396 18.8203 12.9476 18.8203C15.9812 18.8203 18.4492 21.2864 18.4492 24.3177C18.4492 27.3489 15.9812 29.815 12.9476 29.815Z" fill="#24739F"/>
<path d="M36.8803 13.9258H32.4231C31.9265 13.9258 31.5239 14.328 31.5239 14.8242C31.5239 15.3204 31.9265 15.7227 32.4231 15.7227H36.8803C37.3769 15.7227 37.7794 15.3204 37.7794 14.8242C37.7794 14.328 37.377 13.9258 36.8803 13.9258Z" fill="#24739F"/>
<path d="M29.3722 14.189C29.205 14.0219 28.973 13.9258 28.7365 13.9258C28.5001 13.9258 28.2681 14.0219 28.1009 14.189C27.9336 14.3561 27.8374 14.5879 27.8374 14.8242C27.8374 15.0605 27.9336 15.2923 28.1009 15.4594C28.2681 15.6265 28.5001 15.7227 28.7365 15.7227C28.973 15.7227 29.205 15.6265 29.3722 15.4594C29.5395 15.2923 29.6357 15.0605 29.6357 14.8242C29.6357 14.5879 29.5395 14.3561 29.3722 14.189Z" fill="#24739F"/>
<path d="M36.8802 19.3164H28.7365C28.2399 19.3164 27.8374 19.7186 27.8374 20.2148C27.8374 20.7111 28.2399 21.1133 28.7365 21.1133H36.8802C37.3768 21.1133 37.7794 20.7111 37.7794 20.2148C37.7794 19.7186 37.3769 19.3164 36.8802 19.3164Z" fill="#24739F"/>
<path d="M36.8802 24.707H28.7365C28.2399 24.707 27.8374 25.1093 27.8374 25.6055C27.8374 26.1017 28.2399 26.5039 28.7365 26.5039H36.8802C37.3768 26.5039 37.7794 26.1017 37.7794 25.6055C37.7794 25.1093 37.3769 24.707 36.8802 24.707Z" fill="#24739F"/>
<path d="M36.8802 30.0977H28.7365C28.2399 30.0977 27.8374 30.4999 27.8374 30.9961C27.8374 31.4923 28.2399 31.8945 28.7365 31.8945H36.8802C37.3768 31.8945 37.7794 31.4923 37.7794 30.9961C37.7794 30.4999 37.3769 30.0977 36.8802 30.0977Z" fill="#24739F"/>
</svg>
