<svg width="34" height="46" viewBox="0 0 34 46" fill="none" xmlns="http://www.w3.org/2000/svg">
<circle cx="15" cy="31" r="15" fill="#6FD7E9"/>
<path fill-rule="evenodd" clip-rule="evenodd" d="M7.99153 8.57627C7.99153 3.83977 11.8313 0 16.5678 0C21.3043 0 25.1441 3.83977 25.1441 8.57627V14.4237C25.1441 17.087 23.9301 19.4667 22.0254 21.0397V24.6509C22.0254 24.8423 22.1804 25.0532 22.4461 25.0993C25.9393 25.7057 31.8586 28.0729 33.282 34.1984C33.3151 34.3407 33.3305 34.4834 33.3305 34.6248V44.0524C33.3305 45.1302 32.4565 46 31.3814 46H1.94915C0.874026 46 0 45.1302 0 44.0524V34.6248C0 34.4834 0.0154181 34.3407 0.0484909 34.1984C1.47195 28.0729 7.39122 25.7057 10.8844 25.0993C11.1501 25.0532 11.3051 24.8423 11.3051 24.6509V21.196C9.28864 19.6268 7.99153 17.1767 7.99153 14.4237V8.57627ZM14.9409 13.9047C16.9898 14.3385 19.5679 13.8963 22.4787 11.2961C17.4514 12.054 13.2461 11.7917 10.6155 11.3499C11.6805 12.4792 13.1719 13.5301 14.9409 13.9047ZM14.6179 15.4301C17.2686 15.9913 20.3509 15.313 23.5847 12.3979V14.4237C23.5847 18.2991 20.4432 21.4407 16.5678 21.4407C12.6924 21.4407 9.55085 18.2991 9.55085 14.4237V12.4924C10.7843 13.7776 12.5133 14.9845 14.6179 15.4301ZM23.5847 9.53039V8.57627C23.5847 4.7009 20.4432 1.55932 16.5678 1.55932C12.6924 1.55932 9.55085 4.7009 9.55085 8.57627V9.54285C11.8215 10.1061 17.0504 10.731 23.5847 9.53039ZM12.8644 22.1614V24.6509C12.8644 25.6775 12.0854 26.4735 11.151 26.6356C11.1026 26.644 11.0537 26.6528 11.0044 26.6619L16.5847 33.8365L22.4625 26.6879C22.3669 26.6692 22.2724 26.6518 22.1795 26.6356C21.2451 26.4735 20.4661 25.6775 20.4661 24.6509V22.0648C19.2965 22.6627 17.9716 23 16.5678 23C15.2415 23 13.9855 22.699 12.8644 22.1614ZM17.4796 35.2034L24.129 27.1163C27.205 28.0973 30.7785 30.3142 31.7631 34.5514C31.7683 34.5734 31.7712 34.5975 31.7712 34.6248V44.0524C31.7712 44.2663 31.598 44.4407 31.3814 44.4407H1.94915C1.73254 44.4407 1.55932 44.2663 1.55932 44.0524V34.6248C1.55932 34.5975 1.56222 34.5734 1.56736 34.5514C2.56759 30.2472 6.239 28.0277 9.34694 27.0707L15.6531 35.1786C16.1133 35.7703 17.0035 35.7824 17.4796 35.2034Z" fill="#24739F"/>
</svg>
