<svg width="33" height="38" viewBox="0 0 33 38" fill="none" xmlns="http://www.w3.org/2000/svg">
<rect width="32.9997" height="38" fill="black" fill-opacity="0"/>
<circle cx="21.5" cy="26.5" r="9.5" fill="#6FD7E9"/>
<path d="M26.3397 29.9522C26.0866 29.7045 25.6777 29.7045 25.4247 29.9522L23.941 31.4044V24.0667C23.941 23.7171 23.6511 23.4333 23.294 23.4333C22.9368 23.4333 22.647 23.7171 22.647 24.0667V31.4044L21.1632 29.9522C20.9102 29.7045 20.5013 29.7045 20.2483 29.9522C19.9954 30.1998 19.9954 30.6001 20.2483 30.8477L22.8365 33.381C22.9627 33.5045 23.1284 33.5666 23.294 33.5666C23.4597 33.5666 23.6253 33.5045 23.7515 33.381L26.3397 30.8477C26.5927 30.6001 26.5927 30.1999 26.3397 29.9522Z" fill="#24739F"/>
<path d="M23.2938 19C17.942 19 13.5879 23.2617 13.5879 28.5C13.5879 33.7383 17.942 38 23.2938 38C28.6456 38 32.9997 33.7383 32.9997 28.5C32.9997 23.2617 28.6456 19 23.2938 19ZM23.2938 36.7333C18.6556 36.7333 14.882 33.0397 14.882 28.5C14.882 23.9603 18.6556 20.2667 23.2938 20.2667C27.9319 20.2667 31.7055 23.9603 31.7055 28.5C31.7055 33.0397 27.9319 36.7333 23.2938 36.7333Z" fill="#24739F"/>
<path d="M14.2352 34.8333H1.29407V30.4C1.29407 30.0505 1.00418 29.7667 0.647033 29.7667C0.289887 29.7667 0 30.0505 0 30.4V35.4667C0 35.8163 0.289887 36.1 0.647033 36.1H14.2353C14.5924 36.1 14.8823 35.8163 14.8823 35.4667C14.8823 35.1172 14.5924 34.8333 14.2352 34.8333Z" fill="#24739F"/>
<path d="M0.647033 27.2333C0.289887 27.2333 4.1653e-08 27.517 4.1653e-08 27.8666C4.1653e-08 28.2162 0.289887 28.5 0.647033 28.5H0.653479C1.01063 28.5 1.29733 28.2162 1.29733 27.8667C1.29733 27.5171 1.00426 27.2333 0.647033 27.2333Z" fill="#24739F"/>
<path d="M26.9869 10.3189L16.6339 0.185547C16.5129 0.0665 16.3479 0 16.1764 0H0.647033C0.289887 0 4.1653e-08 0.283738 4.1653e-08 0.633309V25.3333C4.1653e-08 25.6829 0.289887 25.9666 0.647033 25.9666C1.00418 25.9666 1.29407 25.6829 1.29407 25.3333V1.26669H15.5294V10.7667C15.5294 11.1163 15.8193 11.4 16.1764 11.4H25.8823V17.1C25.8823 17.4496 26.1722 17.7333 26.5294 17.7333C26.8865 17.7333 27.1764 17.4496 27.1764 17.1V10.7667C27.1765 10.5988 27.1085 10.4373 26.9869 10.3189ZM16.8236 10.1333V2.16221L24.9675 10.1334L16.8236 10.1333Z" fill="#24739F"/>
</svg>
