<svg width="46" height="46" viewBox="0 0 46 46" fill="none" xmlns="http://www.w3.org/2000/svg">
<circle cx="34" cy="33" r="8" fill="#6FD7E9"/>
<path d="M30.6669 25.3C28.13 25.3 26.0669 27.3631 26.0669 29.9C26.0669 32.437 28.13 34.5 30.6669 34.5C33.2038 34.5 35.2669 32.437 35.2669 29.9C35.2669 27.3631 33.2038 25.3 30.6669 25.3ZM30.6669 32.9667C28.9756 32.9667 27.6003 31.5913 27.6003 29.9C27.6003 28.2087 28.9757 26.8334 30.6669 26.8334C32.3582 26.8334 33.7335 28.2088 33.7335 29.9C33.7336 31.5914 32.3582 32.9667 30.6669 32.9667Z" fill="#24739F"/>
<path d="M32.2001 32.9667V36.1346L31.0915 35.3955C30.8339 35.223 30.4989 35.223 30.2412 35.3955L29.1334 36.1346V32.9667H27.6001V37.5667C27.6001 37.8496 27.7557 38.1095 28.0057 38.2428C28.2541 38.3763 28.5577 38.3609 28.7922 38.2045L30.6667 36.9548L32.5412 38.2045C32.6693 38.2896 32.8181 38.3333 32.9667 38.3333C33.0909 38.3333 33.2152 38.3034 33.3286 38.2428C33.5778 38.1094 33.7335 37.8495 33.7335 37.5667V32.9667H32.2001Z" fill="#24739F"/>
<path d="M27.6 7.66663H17.6333V9.19999H27.6V7.66663Z" fill="#24739F"/>
<path d="M35.2668 12.2666H10.7334V13.8H35.2668V12.2666Z" fill="#24739F"/>
<path d="M27.6001 16.8666H10.7334V18.3999H27.6001V16.8666Z" fill="#24739F"/>
<path d="M35.2665 16.8666H30.6665V18.3999H35.2665V16.8666Z" fill="#24739F"/>
<path d="M35.2668 21.4667H10.7334V23H35.2668V21.4667Z" fill="#24739F"/>
<path d="M19.9334 26.0667H10.7334V27.6H19.9334V26.0667Z" fill="#24739F"/>
<path d="M14.5668 29.9H10.7334V31.4334H14.5668V29.9Z" fill="#24739F"/>
<path d="M19.9333 29.9H17.6333V31.4334H19.9333V29.9Z" fill="#24739F"/>
<path d="M42.1669 0C40.0532 0 38.3335 1.71961 38.3335 3.83336V5.36673C38.3335 5.78989 38.6762 6.13336 39.1001 6.13336H45.2335C45.6575 6.13336 46.0001 5.78989 46.0001 5.36673V3.83336C46.0002 1.71961 44.2806 0 42.1669 0ZM44.4669 4.6H39.8669V3.83336C39.8669 2.56531 40.8988 1.53336 42.1669 1.53336C43.4349 1.53336 44.4669 2.56531 44.4669 3.83336V4.6Z" fill="#24739F"/>
<path d="M42.1669 0H9.96658C7.85291 0 6.1333 1.71961 6.1333 3.83336V40.6334H7.66667V3.83336C7.66667 2.56531 8.69861 1.53336 9.96667 1.53336H39.1016C38.6194 2.17431 38.3335 2.97086 38.3335 3.83336L38.3335 42.1667C38.3335 43.4348 37.3015 44.4667 36.0334 44.4667H6.89994V46H36.0334C38.147 46 39.8667 44.2804 39.8667 42.1666L39.8669 3.83336C39.8669 2.56531 40.8988 1.53336 42.1669 1.53336C42.5908 1.53336 42.9334 1.18989 42.9334 0.766727C42.9334 0.343563 42.5908 0 42.1669 0Z" fill="#24739F"/>
<path d="M36.0334 44.4667C34.7654 44.4667 33.7334 43.4346 33.7334 42.1666V40.6332C33.7334 40.2092 33.3908 39.8666 32.9668 39.8666H0.766638C0.343473 39.8666 0 40.2092 0 40.6332V42.1666C0 44.2803 1.71961 45.9999 3.83337 45.9999L36.0334 46C36.4573 46 36.8001 45.6573 36.8001 45.2333C36.8001 44.8093 36.4574 44.4667 36.0334 44.4667ZM3.83337 44.4666C2.56531 44.4666 1.53337 43.4346 1.53337 42.1666V41.3999H32.2001V42.1666C32.2001 43.0291 32.486 43.8256 32.9682 44.4666H3.83337Z" fill="#24739F"/>
</svg>
