<svg width="49" height="48" viewBox="0 0 49 48" xmlns="http://www.w3.org/2000/svg">
<circle cx="24.875" cy="24" r="12" fill="#6FD7E9"/>
<path d="M34.5561 0H14.3188C6.42342 0 0 6.30844 0 14.0625V33.9375C0 41.6916 6.42342 48 14.3188 48H34.5561C42.4515 48 48.8749 41.6916 48.8749 33.9375V14.0625C48.8749 6.30844 42.4515 0 34.5561 0ZM46.9657 33.9375C46.9657 40.6577 41.3987 46.125 34.5561 46.125H14.3188C7.47614 46.125 1.90917 40.6577 1.90917 33.9375V14.0625C1.90917 7.34231 7.47614 1.875 14.3188 1.875H34.5561C41.3987 1.875 46.9657 7.34231 46.9657 14.0625V33.9375Z"/>
<path d="M23.817 41.625H16.0371C15.51 41.625 15.0825 42.0447 15.0825 42.5625C15.0825 43.0803 15.51 43.5 16.0371 43.5H23.817C24.3442 43.5 24.7716 43.0803 24.7716 42.5625C24.7716 42.0447 24.3441 41.625 23.817 41.625Z"/>
<path d="M28.1603 41.625H28.1489C27.6218 41.625 27.1943 42.0447 27.1943 42.5625C27.1943 43.0803 27.6218 43.5 28.1489 43.5H28.1603C28.6875 43.5 29.1149 43.0803 29.1149 42.5625C29.1149 42.0447 28.6874 41.625 28.1603 41.625Z"/>
<path d="M16.7846 14.5978C16.424 14.22 15.8201 14.2006 15.4353 14.5546L15.393 14.5936C15.0095 14.949 14.992 15.5423 15.3538 15.9189C15.5416 16.1144 15.7947 16.213 16.0483 16.213C16.2833 16.213 16.5188 16.1282 16.7032 15.9573L16.7406 15.9229C17.1253 15.5689 17.145 14.9756 16.7846 14.5978Z"/>
<path d="M24.4375 11.0625C22.3408 11.0625 20.2541 11.5585 18.4029 12.497C17.9344 12.7344 17.7507 13.2999 17.9925 13.7601C18.2344 14.2201 18.8102 14.4005 19.2786 14.1631C20.8828 13.3498 22.6185 12.9375 24.4375 12.9375C30.6485 12.9375 35.7016 17.9002 35.7016 24C35.7016 30.0998 30.6485 35.0625 24.4375 35.0625C18.2264 35.0625 13.1733 30.0998 13.1733 24C13.1733 22.0857 13.6788 20.1997 14.6351 18.5458C14.8954 18.0956 14.7348 17.5234 14.2764 17.2676C13.8179 17.0121 13.2353 17.1697 12.9749 17.6199C11.8557 19.5555 11.2642 21.7617 11.2642 24C11.2642 31.1337 17.1737 36.9375 24.4375 36.9375C31.7012 36.9375 37.6108 31.1337 37.6108 24C37.6108 16.8663 31.7012 11.0625 24.4375 11.0625Z"/>
<path d="M24.4375 15.5625C19.7002 15.5625 15.8462 19.3476 15.8462 24C15.8462 28.6524 19.7002 32.4375 24.4375 32.4375C29.1747 32.4375 33.0288 28.6524 33.0288 24C33.0288 19.3476 29.1747 15.5625 24.4375 15.5625ZM24.4375 30.5625C20.753 30.5625 17.7554 27.6186 17.7554 24C17.7554 20.3814 20.753 17.4375 24.4375 17.4375C28.122 17.4375 31.1196 20.3814 31.1196 24C31.1196 27.6186 28.122 30.5625 24.4375 30.5625Z"/>
<path d="M36.9663 8.13281C34.9662 8.13281 33.3389 9.73097 33.3389 11.6953C33.3389 13.6597 34.9662 15.2578 36.9663 15.2578C38.9664 15.2578 40.5937 13.6597 40.5937 11.6953C40.5937 9.73097 38.9664 8.13281 36.9663 8.13281ZM36.9663 13.3828C36.0189 13.3828 35.248 12.6258 35.248 11.6953C35.248 10.7648 36.0189 10.0078 36.9663 10.0078C37.9137 10.0078 38.6846 10.7648 38.6846 11.6953C38.6846 12.6258 37.9137 13.3828 36.9663 13.3828Z"/>
</svg>
