<svg width="169" height="46" viewBox="0 0 169 46" xmlns="http://www.w3.org/2000/svg">
<path d="M0.511922 4.74199C0.403922 4.74199 0.349922 4.79599 0.349922 4.92199V16.838C0.349922 16.946 0.403922 17 0.511922 17H5.28192C6.27192 17 7.11792 16.82 7.81992 16.46C8.95392 15.866 9.51192 14.894 9.51192 13.544C9.51192 12.158 8.93592 11.204 7.80192 10.682C7.11792 10.358 6.23592 10.196 5.17392 10.196H1.78992V6.01999H8.57592C8.70192 6.01999 8.75592 5.96599 8.75592 5.83999V4.92199C8.75592 4.79599 8.70192 4.74199 8.57592 4.74199H0.511922ZM8.05392 13.562C8.05392 14.426 7.69392 15.056 6.95592 15.452C6.46992 15.704 5.87592 15.83 5.17392 15.83H1.78992V11.348H5.08392C5.80392 11.348 6.41592 11.474 6.91992 11.708C7.67592 12.086 8.05392 12.698 8.05392 13.562Z"/>
<path d="M28.8585 10.898C28.8585 9.13399 28.2285 7.63999 26.9865 6.41599C25.7445 5.19199 24.2325 4.57999 22.4685 4.57999C20.8305 4.57999 19.4085 5.11999 18.2025 6.19999C16.9965 7.27999 16.3125 8.61199 16.1505 10.214H13.2165V4.92199C13.2165 4.79599 13.1625 4.74199 13.0365 4.74199H11.9385C11.8305 4.74199 11.7765 4.79599 11.7765 4.92199V16.838C11.7765 16.946 11.8305 17 11.9385 17H13.0365C13.1625 17 13.2165 16.946 13.2165 16.838V11.492H16.1325C16.2765 13.094 16.9605 14.444 18.1845 15.542C19.4085 16.64 20.8485 17.18 22.5225 17.18C24.2865 17.18 25.7985 16.568 27.0405 15.362C28.2825 14.156 28.9125 12.662 28.9125 10.898H28.8585ZM27.4005 10.898C27.4005 12.266 26.9325 13.436 25.9965 14.408C25.0605 15.38 23.8905 15.866 22.5045 15.866C21.1365 15.866 19.9845 15.38 19.0485 14.408C18.1125 13.436 17.6445 12.266 17.6445 10.898C17.6445 9.52999 18.1125 8.35999 19.0665 7.38799C20.0205 6.41599 21.1725 5.92999 22.5225 5.92999C23.9085 5.92999 25.0605 6.41599 25.9965 7.38799C26.9325 8.35999 27.4005 9.52999 27.4005 10.898Z"/>
<path d="M38.8705 8.77399C38.8705 9.79999 38.4925 10.556 37.7545 11.06C37.2685 11.384 36.5665 11.546 35.6485 11.546H32.5165V6.00199H35.8465C36.6565 6.00199 37.3225 6.18199 37.8265 6.55999C38.5285 7.04599 38.8705 7.78399 38.8705 8.77399ZM31.2385 4.74199C31.1305 4.74199 31.0765 4.79599 31.0765 4.92199V16.838C31.0765 16.946 31.1305 17 31.2385 17H32.3365C32.4625 17 32.5165 16.946 32.5165 16.838V12.806H35.8825C37.1065 12.806 38.0605 12.554 38.7625 12.032C39.8065 11.276 40.3285 10.196 40.3285 8.77399C40.3285 7.40599 39.8425 6.34399 38.8885 5.60599C38.1505 5.02999 37.2145 4.74199 36.0625 4.74199H31.2385Z"/>
<path d="M54.6561 10.898C54.6561 9.13399 54.0261 7.63999 52.7661 6.41599C51.5061 5.19199 49.9941 4.57999 48.2301 4.57999C46.4661 4.57999 44.9541 5.19199 43.6941 6.41599C42.4341 7.63999 41.8041 9.13399 41.8041 10.916C41.8041 12.68 42.4341 14.174 43.6941 15.38C44.9541 16.586 46.4661 17.198 48.2301 17.198C49.9941 17.198 51.5061 16.586 52.7661 15.38C54.0261 14.174 54.6561 12.68 54.6561 10.916V10.898ZM53.1261 10.916C53.1261 12.284 52.6581 13.454 51.7221 14.426C50.7861 15.398 49.6341 15.884 48.2661 15.884C46.8981 15.884 45.7461 15.398 44.7921 14.426C43.8381 13.454 43.3701 12.284 43.3701 10.916C43.3701 9.54799 43.8381 8.37799 44.7921 7.40599C45.7461 6.43399 46.8981 5.94799 48.2661 5.94799C49.6341 5.94799 50.7861 6.43399 51.7221 7.40599C52.6581 8.37799 53.1261 9.54799 53.1261 10.916Z"/>
<path d="M61.5783 4.74199C61.4703 4.74199 61.4163 4.79599 61.4163 4.92199V16.838C61.4163 16.946 61.4703 17 61.5783 17H66.3483C67.3383 17 68.1843 16.82 68.8863 16.46C70.0203 15.866 70.5783 14.894 70.5783 13.544C70.5783 12.158 70.0023 11.204 68.8683 10.682C68.1843 10.358 67.3023 10.196 66.2403 10.196H62.8563V6.01999H69.6423C69.7683 6.01999 69.8223 5.96599 69.8223 5.83999V4.92199C69.8223 4.79599 69.7683 4.74199 69.6423 4.74199H61.5783ZM69.1203 13.562C69.1203 14.426 68.7603 15.056 68.0223 15.452C67.5363 15.704 66.9423 15.83 66.2403 15.83H62.8563V11.348H66.1503C66.8703 11.348 67.4823 11.474 67.9863 11.708C68.7423 12.086 69.1203 12.698 69.1203 13.562Z"/>
<path d="M77.667 5.91199C78.675 5.91199 79.503 6.27199 80.151 6.97399C80.799 7.69399 81.123 8.66599 81.123 9.90799V11.456H74.211V9.90799C74.211 8.70199 74.535 7.72999 75.183 6.99199C75.849 6.28999 76.677 5.92999 77.667 5.92999V5.91199ZM82.563 9.87199C82.563 8.25199 82.059 6.93799 81.051 5.94799C80.169 5.04799 79.035 4.59799 77.649 4.59799C76.263 4.59799 75.147 5.04799 74.283 5.94799C73.257 6.93799 72.753 8.25199 72.753 9.88999V16.874C72.753 16.982 72.807 17.036 72.933 17.036H74.013C74.139 17.036 74.193 16.982 74.193 16.874V12.77H81.1049V16.874C81.1049 16.982 81.159 17.036 81.285 17.036H82.383C82.491 17.036 82.545 16.982 82.545 16.874L82.563 9.87199Z"/>
<path d="M90.4523 17.18C91.8563 17.18 93.1343 16.856 94.3043 16.19C94.3943 16.136 94.4303 16.064 94.3943 15.974L93.9623 15.038C93.8903 14.93 93.8003 14.912 93.7103 14.984C92.7023 15.596 91.6223 15.902 90.4703 15.902C89.1203 15.902 87.9683 15.434 87.0143 14.498C86.0603 13.562 85.5743 12.356 85.5743 10.898C85.5743 9.54799 86.0603 8.37799 87.0323 7.38799C88.0043 6.39799 89.1383 5.91199 90.4523 5.91199C91.5143 5.91199 92.5763 6.21799 93.6383 6.81199C93.7643 6.88399 93.8543 6.86599 93.9083 6.75799L94.3403 5.85799C94.3943 5.74999 94.3583 5.65999 94.2323 5.58799C93.0983 4.93999 91.8563 4.61599 90.4883 4.61599C88.7243 4.61599 87.2123 5.22799 85.9523 6.45199C84.6923 7.67599 84.0623 9.15199 84.0623 10.88C84.0623 12.77 84.6563 14.3 85.8623 15.452C87.0683 16.604 88.5983 17.18 90.4523 17.18Z"/>
<path d="M101.597 17.18C103.001 17.18 104.279 16.856 105.449 16.19C105.539 16.136 105.575 16.064 105.539 15.974L105.107 15.038C105.035 14.93 104.945 14.912 104.855 14.984C103.847 15.596 102.767 15.902 101.615 15.902C100.265 15.902 99.1128 15.434 98.1588 14.498C97.2048 13.562 96.7188 12.356 96.7188 10.898C96.7188 9.54799 97.2048 8.37799 98.1768 7.38799C99.1488 6.39799 100.283 5.91199 101.597 5.91199C102.659 5.91199 103.721 6.21799 104.783 6.81199C104.909 6.88399 104.999 6.86599 105.053 6.75799L105.485 5.85799C105.539 5.74999 105.503 5.65999 105.377 5.58799C104.243 4.93999 103.001 4.61599 101.633 4.61599C99.8688 4.61599 98.3568 5.22799 97.0968 6.45199C95.8368 7.67599 95.2068 9.15199 95.2068 10.88C95.2068 12.77 95.8008 14.3 97.0068 15.452C98.2128 16.604 99.7428 17.18 101.597 17.18Z"/>
<path d="M107.756 4.74199C107.648 4.74199 107.594 4.79599 107.594 4.92199V16.838C107.594 16.946 107.648 17 107.756 17H116.198C116.306 17 116.36 16.946 116.36 16.838V15.902C116.36 15.776 116.306 15.722 116.198 15.722H109.034V11.492H115.262C115.37 11.492 115.424 11.438 115.424 11.33V10.394C115.424 10.286 115.37 10.232 115.262 10.232H109.034V6.01999H116.198C116.306 6.01999 116.36 5.96599 116.36 5.83999V4.92199C116.36 4.79599 116.306 4.74199 116.198 4.74199H107.756Z"/>
<path d="M127.298 16.838C127.298 16.964 127.352 17.018 127.478 17.018H128.558C128.684 17.018 128.738 16.964 128.738 16.838V4.92199C128.738 4.81399 128.684 4.75999 128.558 4.75999H127.478C127.352 4.75999 127.298 4.81399 127.298 4.92199V6.16399L119.792 13.886V4.92199C119.792 4.79599 119.738 4.74199 119.612 4.74199H118.514C118.406 4.74199 118.352 4.79599 118.352 4.92199V16.838C118.352 16.946 118.406 17 118.514 17H119.612C119.738 17 119.792 16.946 119.792 16.838V15.686L127.298 7.96399V16.838ZM123.536 1.60999C123.086 1.60999 122.744 1.50199 122.492 1.26799C122.24 1.03399 122.096 0.727993 122.078 0.331993C122.06 0.205993 121.988 0.151993 121.862 0.151993H121.394C121.25 0.151993 121.178 0.205993 121.178 0.331993C121.178 0.979993 121.394 1.51999 121.808 1.95199C122.222 2.38399 122.798 2.59999 123.518 2.59999C124.238 2.59999 124.796 2.38399 125.21 1.95199C125.624 1.51999 125.822 0.979993 125.822 0.331993C125.822 0.205993 125.75 0.151993 125.606 0.151993H125.156C125.03 0.151993 124.958 0.205993 124.94 0.331993C124.85 1.19599 124.364 1.62799 123.482 1.62799L123.536 1.60999Z"/>
<path d="M140.394 4.74199C140.268 4.74199 140.214 4.79599 140.214 4.92199V10.214H132.87V4.92199C132.87 4.79599 132.816 4.74199 132.69 4.74199H131.592C131.484 4.74199 131.43 4.79599 131.43 4.92199V16.838C131.43 16.946 131.484 17 131.592 17H132.69C132.816 17 132.87 16.946 132.87 16.838V11.492H140.214V16.838C140.214 16.946 140.268 17 140.394 17H141.492C141.6 17 141.654 16.946 141.654 16.838V4.92199C141.654 4.79599 141.6 4.74199 141.492 4.74199H140.394Z"/>
<path d="M156.662 10.898C156.662 9.13399 156.032 7.63999 154.772 6.41599C153.512 5.19199 152 4.57999 150.236 4.57999C148.472 4.57999 146.96 5.19199 145.7 6.41599C144.44 7.63999 143.81 9.13399 143.81 10.916C143.81 12.68 144.44 14.174 145.7 15.38C146.96 16.586 148.472 17.198 150.236 17.198C152 17.198 153.512 16.586 154.772 15.38C156.032 14.174 156.662 12.68 156.662 10.916V10.898ZM155.132 10.916C155.132 12.284 154.664 13.454 153.728 14.426C152.792 15.398 151.64 15.884 150.272 15.884C148.904 15.884 147.752 15.398 146.798 14.426C145.844 13.454 145.376 12.284 145.376 10.916C145.376 9.54799 145.844 8.37799 146.798 7.40599C147.752 6.43399 148.904 5.94799 150.272 5.94799C151.64 5.94799 152.792 6.43399 153.728 7.40599C154.664 8.37799 155.132 9.54799 155.132 10.916Z"/>
<path d="M168.014 13.724C168.014 12.896 167.78 12.212 167.33 11.672C166.88 11.132 166.232 10.79 165.386 10.646V10.574C166.484 10.088 167.024 9.18799 167.024 7.87399C167.024 6.81199 166.592 6.00199 165.71 5.42599C165.044 4.97599 164.144 4.75999 163.01 4.75999H159.014C158.906 4.75999 158.852 4.81399 158.852 4.93999V16.856C158.852 16.964 158.906 17.018 159.014 17.018H163.964C165.098 17.018 166.052 16.748 166.844 16.19C167.636 15.632 168.032 14.822 168.032 13.742L168.014 13.724ZM165.584 8.08999C165.584 8.95399 165.242 9.56599 164.576 9.94399C164.234 10.124 163.676 10.214 162.902 10.214H160.31V5.92999H163.082C163.676 5.92999 164.198 6.05599 164.648 6.32599C165.278 6.70399 165.602 7.29799 165.602 8.08999H165.584ZM166.592 13.58C166.592 14.534 166.16 15.2 165.278 15.578C164.864 15.758 164.342 15.848 163.712 15.848H160.328V11.366H163.19C164.324 11.366 165.098 11.492 165.512 11.726C166.232 12.104 166.592 12.716 166.592 13.562V13.58Z"/>
<path d="M12.8959 29.012C12.8959 28.94 12.8599 28.886 12.8059 28.832C12.7519 28.778 12.6799 28.76 12.5899 28.76H10.5199C10.2859 28.76 10.1239 28.85 10.0339 29.048L6.52392 35.114L3.03192 29.048C2.92392 28.85 2.76192 28.76 2.52792 28.76H0.475922C0.385922 28.76 0.313922 28.796 0.259922 28.85C0.205922 28.904 0.169922 28.976 0.169922 29.048V40.766C0.169922 40.838 0.187922 40.91 0.241922 40.964C0.295922 41.018 0.367922 41.054 0.457922 41.054H2.40192C2.49192 41.054 2.56392 41.036 2.61792 40.982C2.67192 40.928 2.68992 40.874 2.68992 40.802V33.314L5.37192 37.868C5.47992 38.066 5.62392 38.156 5.80392 38.156H7.29792C7.47792 38.156 7.62192 38.066 7.72992 37.868L10.3399 33.314V40.802C10.3399 40.874 10.3579 40.946 10.4119 41C10.4659 41.054 10.5379 41.09 10.6279 41.09H12.5719C12.6619 41.09 12.7339 41.072 12.7879 41.018C12.8419 40.964 12.8599 40.91 12.8599 40.838L12.8959 29.012Z"/>
<path d="M18.2215 34.394C18.7075 34.394 19.0315 34.52 19.2115 34.772C19.3735 34.97 19.4635 35.294 19.4635 35.726V35.906C18.0415 36.014 16.9615 36.23 16.2235 36.554C15.2335 37.004 14.7295 37.706 14.7295 38.642C14.7295 39.452 14.9995 40.082 15.5395 40.532C16.0435 40.982 16.6735 41.198 17.4475 41.198C18.2935 41.198 19.0315 41 19.6615 40.604H19.7335V40.748C19.7335 40.82 19.7515 40.892 19.8055 40.946C19.8595 41 19.9315 41.036 20.0215 41.036H21.6055C21.6775 41.036 21.7315 41.018 21.7855 40.964C21.8395 40.91 21.8575 40.856 21.8575 40.784V35.78C21.8575 34.862 21.6235 34.124 21.1375 33.584C20.5795 32.954 19.7155 32.648 18.5455 32.648C17.2675 32.648 16.1515 32.954 15.1975 33.548C15.0715 33.638 15.0355 33.764 15.0895 33.908L15.6115 35.024C15.6655 35.204 15.7915 35.24 15.9895 35.114C16.7455 34.664 17.5015 34.448 18.2395 34.448L18.2215 34.394ZM18.2215 39.56C17.8435 39.56 17.5555 39.488 17.3575 39.326C17.1235 39.182 16.9975 38.948 16.9975 38.624C16.9975 38.192 17.2855 37.886 17.8795 37.688C18.2935 37.562 18.8335 37.49 19.4995 37.49V39.2C19.1035 39.434 18.6895 39.56 18.2395 39.56H18.2215Z"/>
<path d="M29.963 32.756C29.747 32.756 29.567 32.846 29.441 33.026L27.263 35.798H26.399V33.026C26.399 32.846 26.309 32.756 26.129 32.756H24.311C24.131 32.756 24.041 32.846 24.041 33.026V40.73C24.041 40.91 24.131 41 24.311 41H26.129C26.201 41 26.255 40.982 26.309 40.928C26.363 40.874 26.381 40.82 26.381 40.748V37.886H27.227L29.495 40.748C29.621 40.928 29.783 41.018 29.999 41.018H32.195C32.321 41.018 32.393 40.964 32.429 40.874C32.465 40.784 32.429 40.676 32.321 40.55L29.243 36.77L32.177 33.278C32.285 33.152 32.321 33.044 32.285 32.954C32.249 32.864 32.159 32.81 32.033 32.81L29.963 32.756Z"/>
<path d="M37.99 39.218C37.306 39.218 36.766 39.002 36.352 38.552C35.956 38.138 35.758 37.58 35.758 36.878C35.758 36.248 35.956 35.726 36.334 35.312C36.748 34.862 37.306 34.628 37.99 34.628C38.548 34.628 39.106 34.808 39.682 35.168C39.88 35.276 40.006 35.258 40.078 35.096L40.78 33.8C40.852 33.656 40.816 33.53 40.672 33.44C39.898 32.9 38.998 32.63 37.972 32.63C36.352 32.63 35.11 33.17 34.228 34.25C33.634 34.988 33.328 35.87 33.328 36.896C33.328 38.102 33.688 39.092 34.408 39.866C35.254 40.748 36.424 41.18 37.918 41.18C39.052 41.18 39.988 40.91 40.708 40.388C40.852 40.28 40.888 40.172 40.816 40.046L40.15 38.786C40.06 38.624 39.934 38.606 39.754 38.714C39.16 39.056 38.566 39.218 37.972 39.218H37.99Z"/>
<path d="M50.8513 33.026C50.8513 32.846 50.7613 32.756 50.5813 32.756H48.7453C48.5653 32.756 48.4753 32.846 48.4753 33.026V34.016L44.8213 37.292V33.026C44.8213 32.846 44.7313 32.756 44.5513 32.756H42.7153C42.5353 32.756 42.4453 32.846 42.4453 33.026V40.73C42.4453 40.91 42.5353 41 42.7153 41H44.5513C44.6233 41 44.6773 40.982 44.7313 40.928C44.7853 40.874 44.8033 40.82 44.8033 40.748V39.776L48.4573 36.518V40.748C48.4573 40.928 48.5473 41.018 48.7273 41.018H50.5633C50.6353 41.018 50.6893 41 50.7433 40.946C50.7973 40.892 50.8153 40.838 50.8153 40.766L50.8513 33.026Z"/>
<path d="M58.5495 39.668C58.7475 39.668 58.8915 39.578 58.9995 39.38L60.5115 36.86V40.73C60.5115 40.802 60.5295 40.874 60.5835 40.928C60.6375 40.982 60.6915 41.018 60.7635 41.018H62.5455C62.6175 41.018 62.6715 41 62.7255 40.946C62.7795 40.892 62.7975 40.838 62.7975 40.766V33.062C62.7975 32.882 62.7075 32.792 62.5275 32.792H60.7275C60.5115 32.792 60.3495 32.882 60.2415 33.062L57.9735 37.022L55.6695 33.062C55.5795 32.882 55.4175 32.792 55.1835 32.792H53.4195C53.2395 32.792 53.1495 32.882 53.1495 33.062V40.766C53.1495 40.946 53.2395 41.036 53.4195 41.036H55.2015C55.2735 41.036 55.3275 41.018 55.3815 40.964C55.4355 40.91 55.4535 40.856 55.4535 40.784V36.914L56.9475 39.434C57.0555 39.632 57.2175 39.722 57.4155 39.722L58.5495 39.668Z"/>
<path d="M68.1258 34.394C68.6118 34.394 68.9358 34.52 69.1158 34.772C69.2778 34.97 69.3678 35.294 69.3678 35.726V35.906C67.9458 36.014 66.8658 36.23 66.1278 36.554C65.1378 37.004 64.6338 37.706 64.6338 38.642C64.6338 39.452 64.9038 40.082 65.4438 40.532C65.9478 40.982 66.5778 41.198 67.3518 41.198C68.1978 41.198 68.9358 41 69.5658 40.604H69.6378V40.748C69.6378 40.82 69.6558 40.892 69.7098 40.946C69.7638 41 69.8358 41.036 69.9258 41.036H71.5098C71.5818 41.036 71.6358 41.018 71.6898 40.964C71.7438 40.91 71.7618 40.856 71.7618 40.784V35.78C71.7618 34.862 71.5278 34.124 71.0418 33.584C70.4838 32.954 69.6198 32.648 68.4498 32.648C67.1718 32.648 66.0558 32.954 65.1018 33.548C64.9758 33.638 64.9398 33.764 64.9938 33.908L65.5158 35.024C65.5698 35.204 65.6958 35.24 65.8938 35.114C66.6498 34.664 67.4058 34.448 68.1438 34.448L68.1258 34.394ZM68.1258 39.56C67.7478 39.56 67.4598 39.488 67.2618 39.326C67.0278 39.182 66.9018 38.948 66.9018 38.624C66.9018 38.192 67.1898 37.886 67.7838 37.688C68.1978 37.562 68.7378 37.49 69.4038 37.49V39.2C69.0078 39.434 68.5938 39.56 68.1438 39.56H68.1258Z"/>
<path d="M80.9439 41C81.1239 41 81.2139 40.91 81.2139 40.73V31.046H86.4519C86.5419 31.046 86.6139 31.028 86.6679 30.974C86.7219 30.92 86.7399 30.866 86.7399 30.794V29.03C86.7399 28.958 86.7039 28.904 86.6499 28.85C86.5959 28.796 86.5239 28.778 86.4339 28.778H78.8919C78.8019 28.778 78.7299 28.814 78.6759 28.868C78.6219 28.922 78.5859 28.994 78.5859 29.066V40.784C78.5859 40.856 78.6039 40.928 78.6579 40.982C78.7119 41.036 78.7839 41.072 78.8739 41.072L80.9439 41Z"/>
<path d="M88.6612 34.61C88.9312 34.556 89.2732 34.538 89.6872 34.538C90.4072 34.538 90.9652 34.754 91.3792 35.204C91.7572 35.654 91.9552 36.212 91.9552 36.896C91.9552 37.706 91.7392 38.318 91.3072 38.714C90.9112 39.056 90.3712 39.236 89.6692 39.236C89.2912 39.236 88.9492 39.182 88.6612 39.074V34.61ZM86.5552 32.864C86.3752 32.918 86.2852 33.026 86.2852 33.188V44.942C86.2852 45.14 86.3752 45.23 86.5552 45.23H88.3912C88.4632 45.23 88.5172 45.212 88.5712 45.158C88.6252 45.104 88.6432 45.032 88.6432 44.942V41.036C88.9852 41.126 89.3992 41.18 89.8852 41.18C91.3612 41.18 92.4952 40.73 93.3052 39.83C93.9532 39.092 94.2772 38.12 94.2772 36.914C94.2772 35.654 93.8992 34.646 93.1252 33.908C92.2612 33.044 91.0192 32.612 89.4172 32.612C88.3012 32.612 87.3292 32.702 86.5192 32.882L86.5552 32.864Z"/>
<path d="M98.6481 32.756C97.9461 32.756 97.3521 32.882 96.8661 33.152C96.0021 33.602 95.5701 34.376 95.5701 35.474C95.5701 36.14 95.7501 36.68 96.0921 37.094C96.3621 37.382 96.7221 37.616 97.1721 37.814L95.3541 40.586C95.2821 40.676 95.2641 40.766 95.2821 40.856C95.3001 40.946 95.3721 40.982 95.4981 40.982H97.2981C97.4961 40.982 97.6401 40.91 97.7301 40.766L99.2061 38.318H100.304V40.712C100.304 40.784 100.322 40.856 100.376 40.91C100.43 40.964 100.502 41 100.592 41H102.338C102.41 41 102.464 40.982 102.518 40.928C102.572 40.874 102.59 40.82 102.59 40.748V33.044C102.59 32.864 102.5 32.774 102.32 32.774L98.6481 32.756ZM100.286 34.682V36.446H98.9361C98.5761 36.446 98.3241 36.374 98.1621 36.23C97.9821 36.068 97.8921 35.852 97.8921 35.564C97.8921 35.276 97.9641 35.06 98.1261 34.898C98.2881 34.754 98.5581 34.682 98.9361 34.682H100.286Z"/>
<path d="M114.26 33.026C114.26 32.846 114.17 32.756 113.972 32.756H107.366C107.186 32.756 107.096 32.846 107.096 33.026V33.908C107.078 35.096 107.006 36.014 106.88 36.644C106.736 37.49 106.484 38.246 106.106 38.912H104.468C104.288 38.912 104.198 39.002 104.198 39.2V43.754C104.198 43.934 104.288 44.024 104.468 44.024H106.268C106.448 44.024 106.538 43.934 106.538 43.754V41.018H114.35V43.754C114.35 43.826 114.368 43.898 114.422 43.952C114.476 44.006 114.53 44.042 114.602 44.042H116.402C116.474 44.042 116.528 44.024 116.582 43.97C116.636 43.916 116.654 43.862 116.654 43.79V39.236C116.654 39.146 116.618 39.074 116.564 39.02C116.51 38.966 116.438 38.948 116.366 38.948H114.206L114.26 33.026ZM109.346 34.898H111.83V38.948H108.428C108.698 38.39 108.914 37.814 109.058 37.202C109.22 36.518 109.31 35.744 109.346 34.898Z"/>
<path d="M126.685 33.134C126.775 32.882 126.703 32.756 126.469 32.756H124.435C124.183 32.756 124.039 32.846 123.985 33.044L122.221 38.606L120.115 33.044C120.061 32.846 119.917 32.756 119.683 32.756H117.469C117.235 32.756 117.163 32.882 117.253 33.134L121.015 41.576C120.781 41.99 120.511 42.332 120.205 42.602C119.827 42.89 119.377 43.034 118.855 43.034C118.765 43.034 118.657 43.034 118.531 43.016C118.405 42.998 118.333 42.998 118.297 42.998C118.153 42.998 118.081 43.07 118.081 43.214V45.032C118.081 45.176 118.153 45.248 118.297 45.248C119.791 45.338 120.997 44.96 121.933 44.114C122.617 43.484 123.175 42.602 123.589 41.468L126.685 33.134Z"/>
<path d="M133.942 32.756C133.762 32.756 133.672 32.846 133.672 33.026V35.798H130.18V33.026C130.18 32.846 130.09 32.756 129.91 32.756H128.092C127.912 32.756 127.822 32.846 127.822 33.026V40.73C127.822 40.91 127.912 41 128.092 41H129.91C129.982 41 130.036 40.982 130.09 40.928C130.144 40.874 130.162 40.82 130.162 40.748V37.886H133.654V40.748C133.654 40.928 133.744 41.018 133.924 41.018H135.724C135.904 41.018 135.994 40.928 135.994 40.748V33.044C135.994 32.864 135.904 32.774 135.724 32.774L133.942 32.756Z"/>
<path d="M140.206 36.896C140.206 36.212 140.404 35.636 140.818 35.168C141.214 34.754 141.718 34.538 142.312 34.538C142.906 34.538 143.41 34.754 143.806 35.168C144.22 35.636 144.418 36.212 144.418 36.896C144.418 37.562 144.22 38.138 143.806 38.606C143.392 39.038 142.888 39.254 142.294 39.254C141.7 39.254 141.196 39.038 140.782 38.606C140.368 38.138 140.17 37.562 140.17 36.896H140.206ZM137.812 36.896C137.812 38.21 138.262 39.272 139.18 40.064C139.99 40.802 141.016 41.18 142.258 41.18C143.518 41.18 144.562 40.802 145.372 40.064C146.272 39.29 146.722 38.228 146.722 36.896C146.722 35.564 146.272 34.502 145.372 33.728C144.544 32.972 143.5 32.594 142.258 32.594C141.016 32.594 139.99 32.972 139.162 33.728C138.244 34.52 137.794 35.582 137.794 36.896H137.812Z"/>
<path d="M153.153 41C153.909 41 154.557 40.82 155.097 40.442C155.637 40.064 155.907 39.506 155.907 38.768C155.907 37.634 155.331 36.932 154.179 36.68V36.626C154.881 36.302 155.223 35.726 155.223 34.88C155.223 34.214 154.953 33.692 154.431 33.314C153.963 32.972 153.297 32.792 152.415 32.792H148.887C148.707 32.792 148.617 32.882 148.617 33.062V40.766C148.617 40.946 148.707 41.036 148.887 41.036L153.153 41ZM152.937 35.276C152.937 35.582 152.793 35.816 152.487 35.978C152.343 36.032 152.109 36.068 151.803 36.068H150.903V34.448H151.911C152.181 34.448 152.397 34.502 152.577 34.61C152.811 34.772 152.937 34.988 152.937 35.276ZM153.549 38.48C153.549 38.876 153.351 39.146 152.973 39.29C152.757 39.362 152.505 39.398 152.199 39.398H150.903V37.562H151.965C152.469 37.562 152.811 37.598 152.991 37.688C153.369 37.85 153.549 38.12 153.549 38.498V38.48Z"/>
<path d="M160.745 34.394C161.231 34.394 161.555 34.52 161.735 34.772C161.897 34.97 161.987 35.294 161.987 35.726V35.906C160.565 36.014 159.485 36.23 158.747 36.554C157.757 37.004 157.253 37.706 157.253 38.642C157.253 39.452 157.523 40.082 158.063 40.532C158.567 40.982 159.197 41.198 159.971 41.198C160.817 41.198 161.555 41 162.185 40.604H162.257V40.748C162.257 40.82 162.275 40.892 162.329 40.946C162.383 41 162.455 41.036 162.545 41.036H164.129C164.201 41.036 164.255 41.018 164.309 40.964C164.363 40.91 164.381 40.856 164.381 40.784V35.78C164.381 34.862 164.147 34.124 163.661 33.584C163.103 32.954 162.239 32.648 161.069 32.648C159.791 32.648 158.675 32.954 157.721 33.548C157.595 33.638 157.559 33.764 157.613 33.908L158.135 35.024C158.189 35.204 158.315 35.24 158.513 35.114C159.269 34.664 160.025 34.448 160.763 34.448L160.745 34.394ZM160.745 39.56C160.367 39.56 160.079 39.488 159.881 39.326C159.647 39.182 159.521 38.948 159.521 38.624C159.521 38.192 159.809 37.886 160.403 37.688C160.817 37.562 161.357 37.49 162.023 37.49V39.2C161.627 39.434 161.213 39.56 160.763 39.56H160.745Z"/>
</svg>
