<svg width="28" height="28" viewBox="0 0 28 28" xmlns="http://www.w3.org/2000/svg">
<path d="M16.4376 14.0003L27.2783 3.1592C27.9518 2.48623 27.9518 1.39431 27.2783 0.721344C26.6047 0.0478007 25.514 0.0478007 24.8405 0.721344L13.9999 11.5624L3.15871 0.721344C2.4852 0.0478007 1.39447 0.0478007 0.720957 0.721344C0.0474415 1.39431 0.0474415 2.48623 0.720957 3.1592L11.5621 14.0003L0.720957 24.8413C0.0474415 25.5143 0.0474415 26.6062 0.720957 27.2792C1.05771 27.6154 1.49906 27.7838 1.93983 27.7838C2.38061 27.7838 2.82196 27.6154 3.15871 27.2786L13.9999 16.4375L24.8405 27.2786C25.1773 27.6154 25.6186 27.7838 26.0594 27.7838C26.5001 27.7838 26.9415 27.6154 27.2783 27.2786C27.9518 26.6056 27.9518 25.5137 27.2783 24.8407L16.4376 14.0003Z"/>
</svg>
