<svg width="210" height="206" viewBox="0 0 210 206" fill="none" xmlns="http://www.w3.org/2000/svg">
<path d="M209.094 3.92806C209.094 1.20863 207.885 0 205.468 0H178.576C175.554 0 173.137 1.20863 171.626 3.92806L104.245 117.54L36.8633 3.92806C35.6547 1.20863 33.5396 0 30.2158 0H3.32374C2.41727 0 1.51079 0.302149 0.906476 1.20863C0.302159 2.11509 0 3.02158 0 3.92806V202.144C0 204.561 1.20863 205.77 3.6259 205.77H29.0072C31.4245 205.77 32.6331 204.561 32.6331 202.144V58.9209L89.741 152.892C91.2518 155.309 93.3669 156.518 96.0863 156.518H115.122C117.842 156.518 119.957 155.309 121.468 152.892L177.367 58.9209V202.144C177.367 204.561 178.576 205.77 180.993 205.77H206.374C208.791 205.77 210 204.561 210 202.144L209.094 3.92806Z" fill="white"/>
</svg>
